<?xml version="1.0" standalone="yes"?>

<svg version="1.1" viewBox="0.0 0.0 154.30708661417322 137.10761154855643" fill="none" stroke="none" stroke-linecap="square" stroke-miterlimit="10" xmlns="http://www.w3.org/2000/svg" xmlns:xlink="http://www.w3.org/1999/xlink"><clipPath id="p.0"><path d="m0 0l154.30708 0l0 137.1076l-154.30708 0l0 -137.1076z" clip-rule="nonzero"></path></clipPath><g clip-path="url(#p.0)"><path fill="#000000" fill-opacity="0.0" d="m0 0l154.30708 0l0 137.1076l-154.30708 0z" fill-rule="evenodd"></path><path fill="#000000" fill-opacity="0.0" d="m0 0l142.51968 0l0 127.779526l-142.51968 0z" fill-rule="evenodd"></path><path fill="#38761d" d="m59.267654 37.892498q0 3.96875 -0.984375 7.234375q-0.984375 3.25 -2.90625 5.578125q-1.921875 2.3125 -4.734375 3.578125q-2.8125 1.265625 -6.453125 1.265625q-3.8125 0 -6.65625 -1.265625q-2.828125 -1.265625 -4.703125 -3.578125q-1.875 -2.328125 -2.8125 -5.59375q-0.9375 -3.28125 -0.9375 -7.265625q0 -3.984375 0.9375 -7.21875q0.9375 -3.25 2.8125 -5.546875q1.875 -2.296875 4.734375 -3.546875q2.859375 -1.265625 6.671875 -1.265625q3.640625 0 6.421875 1.265625q2.796875 1.25 4.71875 3.5625q1.921875 2.296875 2.90625 5.546875q0.984375 3.25 0.984375 7.25zm-24.875 0q0 3.5625 0.53125 6.375q0.53125 2.796875 1.703125 4.734375q1.171875 1.921875 3.03125 2.953125q1.859375 1.015625 4.53125 1.015625q2.671875 0 4.53125 -1.015625q1.875 -1.03125 3.03125 -2.953125q1.15625 -1.9375 1.671875 -4.734375q0.515625 -2.8125 0.515625 -6.375q0 -3.5625 -0.515625 -6.359375q-0.515625 -2.796875 -1.671875 -4.71875q-1.15625 -1.921875 -3.0 -2.921875q-1.84375 -1.015625 -4.515625 -1.015625q-2.671875 0 -4.546875 1.015625q-1.875 1.0 -3.0625 2.921875q-1.171875 1.921875 -1.703125 4.71875q-0.53125 2.796875 -0.53125 6.359375zm54.734375 -8.546875l0 2.015625l-0.140625 0q-0.703125 0 -1.21875 0.15625q-0.5 0.140625 -0.90625 0.5625q-0.40625 0.421875 -0.765625 1.15625q-0.34375 0.71875 -0.765625 1.875l-7.296875 20.15625q-0.84375 2.328125 -1.59375 4.078125q-0.75 1.765625 -1.578125 3.015625q-0.8125 1.25 -1.78125 2.0625038q-0.96875 0.828125 -2.21875 1.3125q-1.234375 0.5 -2.859375 0.6875q-1.609375 0.1875 -3.75 0.1875l-0.421875 0l0 -2.265625q2.4375 0 4.1875 -0.7343788q1.765625 -0.71875 3.046875 -1.984375q1.28125 -1.265625 2.125 -3.0q0.859375 -1.71875 1.453125 -3.734375l-8.890625 -20.984375q-0.328125 -0.75 -0.640625 -1.21875q-0.296875 -0.484375 -0.6875 -0.78125q-0.375 -0.3125 -0.890625 -0.421875q-0.5 -0.125 -1.203125 -0.125l-0.140625 0l0 -2.015625l11.53125 0l0 2.015625l-0.140625 0q-1.453125 0 -2.171875 0.5625q-0.703125 0.5625 -0.703125 1.75q0 0.40625 0.078125 0.8125q0.078125 0.40625 0.296875 0.953125l3.515625 8.546875q0.328125 0.828125 0.6875 1.796875q0.359375 0.96875 0.671875 1.921875q0.328125 0.953125 0.578125 1.796875q0.265625 0.84375 0.359375 1.453125l0.140625 0q0.25 -1.0625 0.703125 -2.5625q0.46875 -1.515625 1.078125 -3.25l3.203125 -9.359375q0.21875 -0.578125 0.3125 -1.109375q0.109375 -0.546875 0.109375 -0.953125q0 -1.234375 -0.78125 -1.796875q-0.78125 -0.5625 -2.375 -0.5625l-0.140625 0l0 -2.015625l9.984375 0zm7.0546875 18.765625q0 2.25 0.9375 3.375q0.953125 1.109375 2.953125 1.109375q1.453125 0 2.625 -0.46875q1.1875 -0.46875 2.015625 -1.328125q0.84375 -0.875 1.28125 -2.109375q0.453125 -1.25 0.453125 -2.78125l0 -3.890625l-3.078125 0.140625q-2.03125 0.09375 -3.40625 0.515625q-1.375 0.40625 -2.21875 1.140625q-0.84375 0.734375 -1.203125 1.8125q-0.359375 1.078125 -0.359375 2.484375zm5.8125 -16.84375q-1.390625 0 -2.25 0.390625q-0.84375 0.375 -1.328125 1.078125q-0.484375 0.703125 -0.65625 1.671875q-0.15625 0.953125 -0.15625 2.078125q-1.984375 0 -3.03125 -0.671875q-1.046875 -0.6875 -1.046875 -2.34375q0 -1.25 0.671875 -2.109375q0.6875 -0.875 1.875 -1.421875q1.1875 -0.546875 2.75 -0.796875q1.578125 -0.265625 3.359375 -0.265625q2.203125 0 3.84375 0.4375q1.640625 0.421875 2.734375 1.40625q1.109375 0.984375 1.65625 2.578125q0.546875 1.578125 0.546875 3.875l0 12.4375q0 1.015625 0.15625 1.671875q0.171875 0.65625 0.515625 1.0625q0.359375 0.390625 0.9375 0.5625q0.578125 0.15625 1.375 0.15625l0.140625 0l0 2.015625l-6.5 0l-0.75 -4.125l-0.390625 0q-0.75 1.0 -1.453125 1.84375q-0.703125 0.84375 -1.546875 1.453125q-0.84375 0.609375 -1.921875 0.953125q-1.0625 0.34375 -2.5625 0.34375q-1.59375 0 -2.96875 -0.46875q-1.359375 -0.453125 -2.359375 -1.390625q-1.0 -0.953125 -1.5625 -2.390625q-0.5625 -1.453125 -0.5625 -3.421875q0 -3.8125 2.71875 -5.65625q2.71875 -1.859375 8.234375 -2.03125l3.984375 -0.140625l0 -2.875q0 -1.296875 -0.140625 -2.375q-0.140625 -1.09375 -0.609375 -1.875q-0.46875 -0.796875 -1.359375 -1.21875q-0.875 -0.4375 -2.34375 -0.4375z" fill-rule="nonzero"></path><path fill="#1155cc" d="m52.216873 113.08l0 -2.015625l0.171875 0q0.765625 0 1.390625 -0.109375q0.625 -0.109375 1.046875 -0.421875q0.4375 -0.3125 0.6875 -0.90625q0.265625 -0.609375 0.3125 -1.59375l0 -25.640625l-10.984375 30.6875l-2.609375 0l-11.125 -30.59375l0 25.125q0 1.125 0.234375 1.8125q0.234375 0.671875 0.6875 1.046875q0.453125 0.359375 1.09375 0.484375q0.65625 0.109375 1.453125 0.109375l0.140625 0l0 2.015625l-11.09375 0l0 -2.015625l0.609375 0q0.796875 0 1.515625 -0.109375q0.71875 -0.109375 1.25 -0.4375q0.546875 -0.328125 0.859375 -0.96875q0.3125 -0.640625 0.3125 -1.703125l0 -23.765625q0 -1.046875 -0.3125 -1.6875q-0.3125 -0.65625 -0.859375 -1.0q-0.53125 -0.359375 -1.25 -0.453125q-0.71875 -0.109375 -1.515625 -0.109375l-0.609375 0l0 -2.015625l10.953125 0l9.9375 27.4375l9.84375 -27.4375l10.640625 0l0 2.015625l-0.609375 0q-0.828125 0 -1.546875 0.125q-0.703125 0.109375 -1.25 0.46875q-0.53125 0.359375 -0.84375 1.046875q-0.296875 0.671875 -0.296875 1.796875l0 23.34375q0 1.125 0.296875 1.8125q0.3125 0.671875 0.84375 1.046875q0.546875 0.359375 1.25 0.484375q0.71875 0.109375 1.546875 0.109375l0.609375 0l0 2.015625l-12.78125 0zm16.335938 -2.015625q0.796875 0 1.515625 -0.109375q0.71875 -0.109375 1.25 -0.4375q0.546875 -0.328125 0.859375 -0.96875q0.3125 -0.640625 0.3125 -1.703125l0 -15.203125q0 -1.0625 -0.3125 -1.703125q-0.3125 -0.640625 -0.859375 -0.984375q-0.53125 -0.359375 -1.25 -0.46875q-0.71875 -0.125 -1.515625 -0.125l-0.140625 0l0 -2.015625l8.578125 0l0 20.265625q0 1.125 0.3125 1.8125q0.328125 0.671875 0.84375 1.046875q0.53125 0.359375 1.25 0.484375q0.734375 0.109375 1.53125 0.109375l0.640625 0l0 2.015625l-13.640625 0l0 -2.015625l0.625 0zm3.265625 -31.5q0 -0.84375 0.203125 -1.40625q0.21875 -0.5625 0.59375 -0.90625q0.375 -0.359375 0.859375 -0.5q0.5 -0.140625 1.078125 -0.140625q0.5625 0 1.046875 0.140625q0.5 0.140625 0.859375 0.5q0.375 0.34375 0.59375 0.90625q0.21875 0.5625 0.21875 1.40625q0 0.84375 -0.21875 1.40625q-0.21875 0.5625 -0.59375 0.921875q-0.359375 0.34375 -0.859375 0.5q-0.484375 0.140625 -1.046875 0.140625q-0.578125 0 -1.078125 -0.140625q-0.484375 -0.15625 -0.859375 -0.5q-0.375 -0.359375 -0.59375 -0.921875q-0.203125 -0.5625 -0.203125 -1.40625zm20.429688 33.984375q-1.796875 0 -3.265625 -0.328125q-1.46875 -0.3125 -2.5 -0.953125q-1.03125 -0.640625 -1.59375 -1.59375q-0.5625 -0.953125 -0.5625 -2.21875q0 -0.953125 0.3125 -1.59375q0.328125 -0.65625 0.78125 -1.03125q0.453125 -0.375 0.984375 -0.515625q0.53125 -0.15625 0.953125 -0.15625q0 1.265625 0.25 2.375q0.265625 1.09375 0.875 1.921875q0.609375 0.828125 1.59375 1.3125q1.0 0.484375 2.453125 0.484375q1.296875 0 2.28125 -0.3125q0.984375 -0.328125 1.640625 -0.890625q0.671875 -0.578125 1.015625 -1.390625q0.359375 -0.8125 0.359375 -1.765625q0 -0.890625 -0.265625 -1.53125q-0.265625 -0.65625 -0.9375 -1.21875q-0.671875 -0.5625 -1.828125 -1.140625q-1.140625 -0.59375 -2.875 -1.34375q-1.84375 -0.8125 -3.21875 -1.578125q-1.375 -0.765625 -2.265625 -1.65625q-0.890625 -0.890625 -1.34375 -2.015625q-0.4375 -1.140625 -0.4375 -2.71875q0 -1.640625 0.640625 -2.90625q0.65625 -1.265625 1.84375 -2.109375q1.203125 -0.859375 2.859375 -1.296875q1.671875 -0.453125 3.703125 -0.453125q1.71875 0 3.03125 0.359375q1.3125 0.34375 2.203125 0.9375q0.890625 0.59375 1.328125 1.40625q0.453125 0.8125 0.453125 1.703125q0 1.3125 -0.90625 2.09375q-0.90625 0.78125 -2.5625 0.78125q0 -2.40625 -1.0 -3.734375q-1.0 -1.34375 -3.125 -1.34375q-1.21875 0 -2.09375 0.28125q-0.859375 0.28125 -1.421875 0.796875q-0.546875 0.515625 -0.8125 1.21875q-0.25 0.703125 -0.25 1.546875q0 0.90625 0.328125 1.578125q0.328125 0.671875 1.046875 1.234375q0.71875 0.5625 1.84375 1.09375q1.140625 0.515625 2.734375 1.171875q1.90625 0.796875 3.265625 1.578125q1.359375 0.765625 2.234375 1.6875q0.875 0.90625 1.296875 2.0625q0.421875 1.140625 0.421875 2.640625q0 1.875 -0.6875 3.28125q-0.671875 1.40625 -1.921875 2.359375q-1.234375 0.953125 -2.984375 1.421875q-1.734375 0.46875 -3.875 0.46875zm24.3125 -2.53125q0.859375 0 1.578125 -0.09375q0.734375 -0.09375 1.484375 -0.234375l0 2.109375q-0.296875 0.140625 -0.796875 0.28125q-0.484375 0.140625 -1.0625 0.25q-0.578125 0.109375 -1.21875 0.15625q-0.625 0.0625 -1.1875 0.0625q-1.828125 0 -3.140625 -0.390625q-1.3125 -0.390625 -2.15625 -1.25q-0.84375 -0.875 -1.25 -2.296875q-0.40625 -1.4375 -0.40625 -3.5l0 -16.03125l-3.65625 0l0 -1.921875q0.859375 0 1.90625 -0.34375q1.046875 -0.359375 1.84375 -1.171875q0.8125 -0.890625 1.3125 -2.125q0.515625 -1.234375 0.890625 -3.078125l2.203125 0l0 5.90625l6.28125 0l0 2.734375l-6.28125 0l0 16.171875q0 2.46875 0.984375 3.625q1.0 1.140625 2.671875 1.140625z" fill-rule="nonzero"></path><path fill="#000000" fill-opacity="0.0" d="m109.45205 65.35858l29.480324 0l0 26.047249l-29.480324 0z" fill-rule="evenodd"></path><path fill="#ffffff" d="m117.66155 74.35858l13.061317 0l0 16.0l-13.061317 0l0 -16.0z" fill-rule="nonzero"></path><path fill="#999999" d="m117.98968 78.54921l4.609375 0l0.140625 1.28125l-0.203125 0q-0.0625 -0.453125 -0.34375 -0.671875q-0.265625 -0.234375 -0.890625 -0.234375l-0.484375 0l0 3.6875q0 0.53125 0.125 0.671875q0.140625 0.140625 0.546875 0.15625l0 0.234375l-2.375 0l0 -0.234375q0.421875 -0.03125 0.53125 -0.171875q0.109375 -0.140625 0.109375 -0.65625l0 -3.6875l-0.484375 0q-0.59375 0 -0.859375 0.203125q-0.25 0.203125 -0.34375 0.703125l-0.21875 0l0.140625 -1.28125zm7.015625 0l1.734375 3.625l1.6718826 -3.625l1.78125 0l0 0.234375q-0.359375 0.015625 -0.484375 0.078125q-0.109375 0.0625 -0.171875 0.203125q-0.0625 0.140625 -0.0625 0.578125l0 2.96875q0 0.546875 0.125 0.6875q0.125 0.125 0.59375 0.140625l0 0.234375l-2.5312576 0l0 -0.234375q0.37500763 0 0.5000076 -0.0625q0.125 -0.078125 0.1875 -0.203125q0.0625 -0.140625 0.0625 -0.546875l0 -3.125l-1.9531326 4.171875l-0.203125 0l-1.953125 -4.125l0 3.0625q0 0.4375 0.046875 0.5625q0.0625 0.125 0.171875 0.203125q0.125 0.0625 0.375 0.0625l0.234375 0l0 0.234375l-1.953125 0l0 -0.234375q0.359375 0 0.484375 -0.0625q0.125 -0.0625 0.171875 -0.1875q0.0625 -0.140625 0.0625 -0.578125l0 -2.953125q0 -0.484375 -0.0625 -0.609375q-0.046875 -0.125 -0.171875 -0.1875q-0.125 -0.078125 -0.484375 -0.078125l0 -0.234375l1.828125 0z" fill-rule="nonzero"></path></g></svg>

