<svg width="512" height="640" xmlns="http://www.w3.org/2000/svg">
 <g>
  <title>background</title>
  <rect x="-1" y="-1" width="514" height="642" id="canvas_background" fill="none"/>
 </g>

 <g>
  <title>Layer 1</title>
  <g id="svg_2">
   <g id="svg_3">
    <g id="svg_4">
     <g id="svg_5">
      <path d="m12.3,412.984c-2.207,0 -4.038,-1.789 -4.038,-4c0,-2.209 1.75,-3.998 3.96,-3.998l0.078,0c2.21,0 3.999,1.789 3.999,3.998c0,2.211 -1.789,4 -3.999,4z" id="svg_6" stroke="#e5e5e5" fill="#ffffff"/>
     </g>
    </g>
   </g>
   <g id="svg_7">
    <g id="svg_8">
     <g id="svg_9">
      <path d="m36.294,436.979c-2.207,0 -4.038,-1.789 -4.038,-4s1.75,-3.998 3.96,-3.998l0.078,0c2.21,0 3.999,1.787 3.999,3.998s-1.789,4 -3.999,4z" id="svg_10" stroke="#e5e5e5" fill="#ffffff"/>
     </g>
    </g>
   </g>
   <g id="svg_11">
    <g id="svg_12">
     <g id="svg_13">
      <path d="m12.3,364.996c-2.207,0 -4.038,-1.789 -4.038,-4c0,-2.209 1.75,-3.998 3.96,-3.998l0.078,0c2.21,0 3.999,1.789 3.999,3.998c0,2.211 -1.789,4 -3.999,4z" id="svg_14" stroke="#e5e5e5" fill="#ffffff"/>
     </g>
    </g>
   </g>
   <g id="svg_15">
    <g id="svg_16">
     <g id="svg_17">
      <path d="m36.294,388.99c-2.207,0 -4.038,-1.789 -4.038,-4c0,-2.209 1.75,-3.998 3.96,-3.998l0.078,0c2.21,0 3.999,1.789 3.999,3.998c0,2.211 -1.789,4 -3.999,4z" id="svg_18" stroke="#e5e5e5" fill="#ffffff"/>
     </g>
    </g>
   </g>
   <g id="svg_19">
    <g id="svg_20">
     <g id="svg_21">
      <path d="m60.288,412.984c-2.207,0 -4.038,-1.789 -4.038,-4c0,-2.209 1.749,-3.998 3.959,-3.998l0.078,0c2.21,0 3.999,1.789 3.999,3.998c0.001,2.211 -1.788,4 -3.998,4z" id="svg_22" stroke="#e5e5e5" fill="#ffffff"/>
     </g>
    </g>
   </g>
   <g id="svg_23">
    <g id="svg_24">
     <g id="svg_25">
      <path d="m84.282,436.979c-2.207,0 -4.038,-1.789 -4.038,-4s1.75,-3.998 3.96,-3.998l0.078,0c2.21,0 3.999,1.787 3.999,3.998s-1.789,4 -3.999,4z" id="svg_26" stroke="#e5e5e5" fill="#ffffff"/>
     </g>
    </g>
   </g>
   <g id="svg_27">
    <g id="svg_28">
     <g id="svg_29">
      <path d="m12.3,317.008c-2.207,0 -4.038,-1.789 -4.038,-3.998c0,-2.211 1.75,-4 3.96,-4l0.078,0c2.21,0 3.999,1.789 3.999,4c0,2.209 -1.789,3.998 -3.999,3.998z" id="svg_30" stroke="#e5e5e5" fill="#ffffff"/>
     </g>
    </g>
   </g>
   <g id="svg_31">
    <g id="svg_32">
     <g id="svg_33">
      <path d="m36.294,341.002c-2.207,0 -4.038,-1.789 -4.038,-3.998c0,-2.211 1.75,-4 3.96,-4l0.078,0c2.21,0 3.999,1.789 3.999,4c0,2.209 -1.789,3.998 -3.999,3.998z" id="svg_34" stroke="#e5e5e5" fill="#ffffff"/>
     </g>
    </g>
   </g>
   <g id="svg_35">
    <g id="svg_36">
     <g id="svg_37">
      <path d="m60.288,364.996c-2.207,0 -4.038,-1.789 -4.038,-4c0,-2.209 1.749,-3.998 3.959,-3.998l0.078,0c2.21,0 3.999,1.789 3.999,3.998c0.001,2.211 -1.788,4 -3.998,4z" id="svg_38" stroke="#e5e5e5" fill="#ffffff"/>
     </g>
    </g>
   </g>
   <g id="svg_39">
    <g id="svg_40">
     <g id="svg_41">
      <path d="m84.282,388.99c-2.207,0 -4.038,-1.789 -4.038,-4c0,-2.209 1.75,-3.998 3.96,-3.998l0.078,0c2.21,0 3.999,1.789 3.999,3.998c-0.001,2.211 -1.789,4 -3.999,4z" id="svg_42" stroke="#e5e5e5" fill="#ffffff"/>
     </g>
    </g>
   </g>
   <g id="svg_43">
    <g id="svg_44">
     <g id="svg_45">
      <path d="m108.275,412.984c-2.206,0 -4.038,-1.789 -4.038,-4c0,-2.209 1.75,-3.998 3.96,-3.998l0.078,0c2.21,0 3.999,1.789 3.999,3.998c0,2.211 -1.788,4 -3.999,4z" id="svg_46" stroke="#e5e5e5" fill="#ffffff"/>
     </g>
    </g>
   </g>
   <g id="svg_47">
    <g id="svg_48">
     <g id="svg_49">
      <path d="m132.27,436.979c-2.207,0 -4.038,-1.789 -4.038,-4s1.75,-3.998 3.96,-3.998l0.078,0c2.21,0 3.999,1.787 3.999,3.998s-1.789,4 -3.999,4z" id="svg_50" stroke="#e5e5e5" fill="#ffffff"/>
     </g>
    </g>
   </g>
   <g id="svg_51">
    <g id="svg_52">
     <g id="svg_53">
      <path d="m12.3,269.02c-2.207,0 -4.038,-1.787 -4.038,-3.998s1.75,-4 3.96,-4l0.078,0c2.21,0 3.999,1.789 3.999,4s-1.789,3.998 -3.999,3.998z" id="svg_54" stroke="#e5e5e5" fill="#ffffff"/>
     </g>
    </g>
   </g>
   <g id="svg_55">
    <g id="svg_56">
     <g id="svg_57">
      <path d="m36.294,293.014c-2.207,0 -4.038,-1.789 -4.038,-3.998c0,-2.211 1.75,-4 3.96,-4l0.078,0c2.21,0 3.999,1.789 3.999,4c0,2.209 -1.789,3.998 -3.999,3.998z" id="svg_58" stroke="#e5e5e5" fill="#ffffff"/>
     </g>
    </g>
   </g>
   <g id="svg_59">
    <g id="svg_60">
     <g id="svg_61">
      <path d="m60.288,317.008c-2.207,0 -4.038,-1.789 -4.038,-3.998c0,-2.211 1.749,-4 3.959,-4l0.078,0c2.21,0 3.999,1.789 3.999,4c0.001,2.209 -1.788,3.998 -3.998,3.998z" id="svg_62" stroke="#e5e5e5" fill="#ffffff"/>
     </g>
    </g>
   </g>
   <g id="svg_63">
    <g id="svg_64">
     <g id="svg_65">
      <path d="m84.282,341.002c-2.207,0 -4.038,-1.789 -4.038,-3.998c0,-2.211 1.75,-4 3.96,-4l0.078,0c2.21,0 3.999,1.789 3.999,4c-0.001,2.209 -1.789,3.998 -3.999,3.998z" id="svg_66" stroke="#e5e5e5" fill="#ffffff"/>
     </g>
    </g>
   </g>
   <g id="svg_67">
    <g id="svg_68">
     <g id="svg_69">
      <path d="m108.275,364.996c-2.206,0 -4.038,-1.789 -4.038,-4c0,-2.209 1.75,-3.998 3.96,-3.998l0.078,0c2.21,0 3.999,1.789 3.999,3.998c0,2.211 -1.788,4 -3.999,4z" id="svg_70" stroke="#e5e5e5" fill="#ffffff"/>
     </g>
    </g>
   </g>
   <g id="svg_71">
    <g id="svg_72">
     <g id="svg_73">
      <path d="m132.27,388.99c-2.207,0 -4.038,-1.789 -4.038,-4c0,-2.209 1.75,-3.998 3.96,-3.998l0.078,0c2.21,0 3.999,1.789 3.999,3.998c0,2.211 -1.789,4 -3.999,4z" id="svg_74" stroke="#e5e5e5" fill="#ffffff"/>
     </g>
    </g>
   </g>
   <g id="svg_75">
    <g id="svg_76">
     <g id="svg_77">
      <path d="m156.264,412.984c-2.207,0 -4.038,-1.789 -4.038,-4c0,-2.209 1.749,-3.998 3.96,-3.998l0.078,0c2.21,0 3.999,1.789 3.999,3.998c0,2.211 -1.789,4 -3.999,4z" id="svg_78" stroke="#e5e5e5" fill="#ffffff"/>
     </g>
    </g>
   </g>
   <g id="svg_79">
    <g id="svg_80">
     <g id="svg_81">
      <path d="m180.257,436.979c-2.207,0 -4.038,-1.789 -4.038,-4s1.75,-3.998 3.96,-3.998l0.078,0c2.21,0 3.999,1.787 3.999,3.998s-1.788,4 -3.999,4z" id="svg_82" stroke="#e5e5e5" fill="#ffffff"/>
     </g>
    </g>
   </g>
   <g id="svg_83">
    <g id="svg_84">
     <g id="svg_85">
      <path d="m60.288,269.02c-2.207,0 -4.038,-1.787 -4.038,-3.998s1.749,-4 3.959,-4l0.078,0c2.21,0 3.999,1.789 3.999,4s-1.788,3.998 -3.998,3.998z" id="svg_86" stroke="#e5e5e5" fill="#ffffff"/>
     </g>
    </g>
   </g>
   <g id="svg_87">
    <g id="svg_88">
     <g id="svg_89">
      <path d="m84.282,293.014c-2.207,0 -4.038,-1.789 -4.038,-3.998c0,-2.211 1.75,-4 3.96,-4l0.078,0c2.21,0 3.999,1.789 3.999,4c-0.001,2.209 -1.789,3.998 -3.999,3.998z" id="svg_90" stroke="#e5e5e5" fill="#ffffff"/>
     </g>
    </g>
   </g>
   <g id="svg_91">
    <g id="svg_92">
     <g id="svg_93">
      <path d="m108.275,317.008c-2.206,0 -4.038,-1.789 -4.038,-3.998c0,-2.211 1.75,-4 3.96,-4l0.078,0c2.21,0 3.999,1.789 3.999,4c0,2.209 -1.788,3.998 -3.999,3.998z" id="svg_94" stroke="#e5e5e5" fill="#ffffff"/>
     </g>
    </g>
   </g>
   <g id="svg_95">
    <g id="svg_96">
     <g id="svg_97">
      <path d="m132.27,341.002c-2.207,0 -4.038,-1.789 -4.038,-3.998c0,-2.211 1.75,-4 3.96,-4l0.078,0c2.21,0 3.999,1.789 3.999,4c0,2.209 -1.789,3.998 -3.999,3.998z" id="svg_98" stroke="#e5e5e5" fill="#ffffff"/>
     </g>
    </g>
   </g>
   <g id="svg_99">
    <g id="svg_100">
     <g id="svg_101">
      <path d="m156.264,364.996c-2.207,0 -4.038,-1.789 -4.038,-4c0,-2.209 1.749,-3.998 3.96,-3.998l0.078,0c2.21,0 3.999,1.789 3.999,3.998c0,2.211 -1.789,4 -3.999,4z" id="svg_102" stroke="#e5e5e5" fill="#ffffff"/>
     </g>
    </g>
   </g>
   <g id="svg_103">
    <g id="svg_104">
     <g id="svg_105">
      <path d="m180.257,388.99c-2.207,0 -4.038,-1.789 -4.038,-4c0,-2.209 1.75,-3.998 3.96,-3.998l0.078,0c2.21,0 3.999,1.789 3.999,3.998c0,2.211 -1.788,4 -3.999,4z" id="svg_106" stroke="#e5e5e5" fill="#ffffff"/>
     </g>
    </g>
   </g>
   <g id="svg_107">
    <g id="svg_108">
     <g id="svg_109">
      <path d="m204.251,412.984c-2.206,0 -4.038,-1.789 -4.038,-4c0,-2.209 1.75,-3.998 3.959,-3.998l0.078,0c2.211,0 3.999,1.789 3.999,3.998c0.001,2.211 -1.787,4 -3.998,4z" id="svg_110" stroke="#e5e5e5" fill="#ffffff"/>
     </g>
    </g>
   </g>
   <g id="svg_111">
    <g id="svg_112">
     <g id="svg_113">
      <path d="m228.245,436.979c-2.206,0 -4.038,-1.789 -4.038,-4s1.75,-3.998 3.96,-3.998l0.078,0c2.21,0 3.999,1.787 3.999,3.998s-1.788,4 -3.999,4z" id="svg_114" stroke="#e5e5e5" fill="#ffffff"/>
     </g>
    </g>
   </g>
   <g id="svg_115">
    <g id="svg_116">
     <g id="svg_117">
      <path d="m108.275,269.02c-2.206,0 -4.038,-1.787 -4.038,-3.998s1.75,-4 3.96,-4l0.078,0c2.21,0 3.999,1.789 3.999,4s-1.788,3.998 -3.999,3.998z" id="svg_118" stroke="#e5e5e5" fill="#ffffff"/>
     </g>
    </g>
   </g>
   <g id="svg_119">
    <g id="svg_120">
     <g id="svg_121">
      <path d="m132.27,293.014c-2.207,0 -4.038,-1.789 -4.038,-3.998c0,-2.211 1.75,-4 3.96,-4l0.078,0c2.21,0 3.999,1.789 3.999,4c0,2.209 -1.789,3.998 -3.999,3.998z" id="svg_122" stroke="#e5e5e5" fill="#ffffff"/>
     </g>
    </g>
   </g>
   <g id="svg_123">
    <g id="svg_124">
     <g id="svg_125">
      <path d="m156.264,317.008c-2.207,0 -4.038,-1.789 -4.038,-3.998c0,-2.211 1.749,-4 3.96,-4l0.078,0c2.21,0 3.999,1.789 3.999,4c0,2.209 -1.789,3.998 -3.999,3.998z" id="svg_126" stroke="#e5e5e5" fill="#ffffff"/>
     </g>
    </g>
   </g>
   <g id="svg_127">
    <g id="svg_128">
     <g id="svg_129">
      <path d="m180.257,341.002c-2.207,0 -4.038,-1.789 -4.038,-3.998c0,-2.211 1.75,-4 3.96,-4l0.078,0c2.21,0 3.999,1.789 3.999,4c0,2.209 -1.788,3.998 -3.999,3.998z" id="svg_130" stroke="#e5e5e5" fill="#ffffff"/>
     </g>
    </g>
   </g>
   <g id="svg_131">
    <g id="svg_132">
     <g id="svg_133">
      <path d="m204.251,364.996c-2.206,0 -4.038,-1.789 -4.038,-4c0,-2.209 1.75,-3.998 3.959,-3.998l0.078,0c2.211,0 3.999,1.789 3.999,3.998c0.001,2.211 -1.787,4 -3.998,4z" id="svg_134" stroke="#e5e5e5" fill="#ffffff"/>
     </g>
    </g>
   </g>
   <g id="svg_135">
    <g id="svg_136">
     <g id="svg_137">
      <path d="m276.229,436.979c-2.203,0 -4.03,-1.789 -4.03,-4s1.749,-3.998 3.952,-3.998l0.078,0c2.218,0 3.999,1.787 3.999,3.998s-1.781,4 -3.999,4z" id="svg_138" stroke="#e5e5e5" fill="#ffffff"/>
     </g>
    </g>
   </g>
   <g id="svg_139">
    <g id="svg_140">
     <g id="svg_141">
      <path d="m156.264,269.02c-2.207,0 -4.038,-1.787 -4.038,-3.998s1.749,-4 3.96,-4l0.078,0c2.21,0 3.999,1.789 3.999,4s-1.789,3.998 -3.999,3.998z" id="svg_142" stroke="#e5e5e5" fill="#ffffff"/>
     </g>
    </g>
   </g>
   <g id="svg_143">
    <g id="svg_144">
     <g id="svg_145">
      <path d="m180.257,293.014c-2.207,0 -4.038,-1.789 -4.038,-3.998c0,-2.211 1.75,-4 3.96,-4l0.078,0c2.21,0 3.999,1.789 3.999,4c0,2.209 -1.788,3.998 -3.999,3.998z" id="svg_146" stroke="#e5e5e5" fill="#ffffff"/>
     </g>
    </g>
   </g>
   <g id="svg_147">
    <g id="svg_148">
     <g id="svg_149">
      <path d="m204.251,317.008c-2.206,0 -4.038,-1.789 -4.038,-3.998c0,-2.211 1.75,-4 3.959,-4l0.078,0c2.211,0 3.999,1.789 3.999,4c0.001,2.209 -1.787,3.998 -3.998,3.998z" id="svg_150" stroke="#e5e5e5" fill="#ffffff"/>
     </g>
    </g>
   </g>
   <g id="svg_151">
    <g id="svg_152">
     <g id="svg_153">
      <path d="m300.224,412.984c-2.203,0 -4.031,-1.789 -4.031,-4c0,-2.209 1.75,-3.998 3.953,-3.998l0.078,0c2.218,0 3.998,1.789 3.998,3.998c0,2.211 -1.781,4 -3.998,4z" id="svg_154" stroke="#e5e5e5" fill="#ffffff"/>
     </g>
    </g>
   </g>
   <g id="svg_155">
    <g id="svg_156">
     <g id="svg_157">
      <path d="m324.217,436.979c-2.202,0 -4.03,-1.789 -4.03,-4s1.75,-3.998 3.952,-3.998l0.078,0c2.219,0 3.999,1.787 3.999,3.998s-1.78,4 -3.999,4z" id="svg_158" stroke="#e5e5e5" fill="#ffffff"/>
     </g>
    </g>
   </g>
   <g id="svg_159">
    <g id="svg_160">
     <g id="svg_161">
      <path d="m204.251,269.02c-2.206,0 -4.038,-1.787 -4.038,-3.998s1.75,-4 3.959,-4l0.078,0c2.211,0 3.999,1.789 3.999,4s-1.787,3.998 -3.998,3.998z" id="svg_162" stroke="#e5e5e5" fill="#ffffff"/>
     </g>
    </g>
   </g>
   <g id="svg_163">
    <g id="svg_164">
     <g id="svg_165">
      <path d="m228.245,293.014c-2.206,0 -4.038,-1.789 -4.038,-3.998c0,-2.211 1.75,-4 3.96,-4l0.078,0c2.21,0 3.999,1.789 3.999,4c0,2.209 -1.788,3.998 -3.999,3.998z" id="svg_166" stroke="#e5e5e5" fill="#ffffff"/>
     </g>
    </g>
   </g>
   <g id="svg_167">
    <g id="svg_168">
     <g id="svg_169">
      <path d="m300.224,364.996c-2.203,0 -4.031,-1.789 -4.031,-4c0,-2.209 1.75,-3.998 3.953,-3.998l0.078,0c2.218,0 3.998,1.789 3.998,3.998c0,2.211 -1.781,4 -3.998,4z" id="svg_170" stroke="#e5e5e5" fill="#ffffff"/>
     </g>
    </g>
   </g>
   <g id="svg_171">
    <g id="svg_172">
     <g id="svg_173">
      <path d="m324.217,388.99c-2.202,0 -4.03,-1.789 -4.03,-4c0,-2.209 1.75,-3.998 3.952,-3.998l0.078,0c2.219,0 3.999,1.789 3.999,3.998c0,2.211 -1.78,4 -3.999,4z" id="svg_174" stroke="#e5e5e5" fill="#ffffff"/>
     </g>
    </g>
   </g>
   <g id="svg_175">
    <g id="svg_176">
     <g id="svg_177">
      <path d="m348.211,412.984c-2.202,0 -4.03,-1.789 -4.03,-4c0,-2.209 1.75,-3.998 3.952,-3.998l0.078,0c2.218,0 3.999,1.789 3.999,3.998c0,2.211 -1.781,4 -3.999,4z" id="svg_178" stroke="#e5e5e5" fill="#ffffff"/>
     </g>
    </g>
   </g>
   <g id="svg_179">
    <g id="svg_180">
     <g id="svg_181">
      <path d="m372.205,436.979c-2.202,0 -4.03,-1.789 -4.03,-4s1.75,-3.998 3.952,-3.998l0.078,0c2.218,0 3.999,1.787 3.999,3.998s-1.781,4 -3.999,4z" id="svg_182" stroke="#e5e5e5" fill="#ffffff"/>
     </g>
    </g>
   </g>
   <g id="svg_183">
    <g id="svg_184">
     <g id="svg_185">
      <path d="m300.224,317.008c-2.203,0 -4.031,-1.789 -4.031,-3.998c0,-2.211 1.75,-4 3.953,-4l0.078,0c2.218,0 3.998,1.789 3.998,4c0,2.209 -1.781,3.998 -3.998,3.998z" id="svg_186" stroke="#e5e5e5" fill="#ffffff"/>
     </g>
    </g>
   </g>
   <g id="svg_187">
    <g id="svg_188">
     <g id="svg_189">
      <path d="m324.217,341.002c-2.202,0 -4.03,-1.789 -4.03,-3.998c0,-2.211 1.75,-4 3.952,-4l0.078,0c2.219,0 3.999,1.789 3.999,4c0,2.209 -1.78,3.998 -3.999,3.998z" id="svg_190" stroke="#e5e5e5" fill="#ffffff"/>
     </g>
    </g>
   </g>
   <g id="svg_191">
    <g id="svg_192">
     <g id="svg_193">
      <path d="m348.211,364.996c-2.202,0 -4.03,-1.789 -4.03,-4c0,-2.209 1.75,-3.998 3.952,-3.998l0.078,0c2.218,0 3.999,1.789 3.999,3.998c0,2.211 -1.781,4 -3.999,4z" id="svg_194" stroke="#e5e5e5" fill="#ffffff"/>
     </g>
    </g>
   </g>
   <g id="svg_195">
    <g id="svg_196">
     <g id="svg_197">
      <path d="m372.205,388.99c-2.202,0 -4.03,-1.789 -4.03,-4c0,-2.209 1.75,-3.998 3.952,-3.998l0.078,0c2.218,0 3.999,1.789 3.999,3.998c0,2.211 -1.781,4 -3.999,4z" id="svg_198" stroke="#e5e5e5" fill="#ffffff"/>
     </g>
    </g>
   </g>
   <g id="svg_199">
    <g id="svg_200">
     <g id="svg_201">
      <path d="m396.199,412.984c-2.203,0 -4.03,-1.789 -4.03,-4c0,-2.209 1.749,-3.998 3.952,-3.998l0.078,0c2.218,0 3.999,1.789 3.999,3.998c0,2.211 -1.781,4 -3.999,4z" id="svg_202" stroke="#e5e5e5" fill="#ffffff"/>
     </g>
    </g>
   </g>
   <g id="svg_203">
    <g id="svg_204">
     <g id="svg_205">
      <path d="m420.192,436.979c-2.202,0 -4.029,-1.789 -4.029,-4s1.749,-3.998 3.951,-3.998l0.078,0c2.219,0 4,1.787 4,3.998s-1.781,4 -4,4z" id="svg_206" stroke="#e5e5e5" fill="#ffffff"/>
     </g>
    </g>
   </g>
   <g id="svg_207">
    <g id="svg_208">
     <g id="svg_209">
      <path d="m300.224,269.02c-2.203,0 -4.031,-1.787 -4.031,-3.998s1.75,-4 3.953,-4l0.078,0c2.218,0 3.998,1.789 3.998,4s-1.781,3.998 -3.998,3.998z" id="svg_210" stroke="#e5e5e5" fill="#ffffff"/>
     </g>
    </g>
   </g>
   <g id="svg_211">
    <g id="svg_212">
     <g id="svg_213">
      <path d="m324.217,293.014c-2.202,0 -4.03,-1.789 -4.03,-3.998c0,-2.211 1.75,-4 3.952,-4l0.078,0c2.219,0 3.999,1.789 3.999,4c0,2.209 -1.78,3.998 -3.999,3.998z" id="svg_214" stroke="#e5e5e5" fill="#ffffff"/>
     </g>
    </g>
   </g>
   <g id="svg_215">
    <g id="svg_216">
     <g id="svg_217">
      <path d="m348.211,317.008c-2.202,0 -4.03,-1.789 -4.03,-3.998c0,-2.211 1.75,-4 3.952,-4l0.078,0c2.218,0 3.999,1.789 3.999,4c0,2.209 -1.781,3.998 -3.999,3.998z" id="svg_218" stroke="#e5e5e5" fill="#ffffff"/>
     </g>
    </g>
   </g>
   <g id="svg_219">
    <g id="svg_220">
     <g id="svg_221">
      <path d="m372.205,341.002c-2.202,0 -4.03,-1.789 -4.03,-3.998c0,-2.211 1.75,-4 3.952,-4l0.078,0c2.218,0 3.999,1.789 3.999,4c0,2.209 -1.781,3.998 -3.999,3.998z" id="svg_222" stroke="#e5e5e5" fill="#ffffff"/>
     </g>
    </g>
   </g>
   <g id="svg_223">
    <g id="svg_224">
     <g id="svg_225">
      <path d="m396.199,364.996c-2.203,0 -4.03,-1.789 -4.03,-4c0,-2.209 1.749,-3.998 3.952,-3.998l0.078,0c2.218,0 3.999,1.789 3.999,3.998c0,2.211 -1.781,4 -3.999,4z" id="svg_226" stroke="#e5e5e5" fill="#ffffff"/>
     </g>
    </g>
   </g>
   <g id="svg_227">
    <g id="svg_228">
     <g id="svg_229">
      <path d="m420.192,388.99c-2.202,0 -4.029,-1.789 -4.029,-4c0,-2.209 1.749,-3.998 3.951,-3.998l0.078,0c2.219,0 4,1.789 4,3.998c0,2.211 -1.781,4 -4,4z" id="svg_230" stroke="#e5e5e5" fill="#ffffff"/>
     </g>
    </g>
   </g>
   <g id="svg_231">
    <g id="svg_232">
     <g id="svg_233">
      <path d="m444.187,412.984c-2.202,0 -4.03,-1.789 -4.03,-4c0,-2.209 1.75,-3.998 3.952,-3.998l0.078,0c2.219,0 3.999,1.789 3.999,3.998c0,2.211 -1.781,4 -3.999,4z" id="svg_234" stroke="#e5e5e5" fill="#ffffff"/>
     </g>
    </g>
   </g>
   <g id="svg_235">
    <g id="svg_236">
     <g id="svg_237">
      <path d="m468.181,436.979c-2.202,0 -4.03,-1.789 -4.03,-4s1.75,-3.998 3.952,-3.998l0.078,0c2.219,0 3.999,1.787 3.999,3.998s-1.781,4 -3.999,4z" id="svg_238" stroke="#e5e5e5" fill="#ffffff"/>
     </g>
    </g>
   </g>
   <g id="svg_239">
    <g id="svg_240">
     <g id="svg_241">
      <path d="m348.211,269.02c-2.202,0 -4.03,-1.787 -4.03,-3.998s1.75,-4 3.952,-4l0.078,0c2.218,0 3.999,1.789 3.999,4s-1.781,3.998 -3.999,3.998z" id="svg_242" stroke="#e5e5e5" fill="#ffffff"/>
     </g>
    </g>
   </g>
   <g id="svg_243">
    <g id="svg_244">
     <g id="svg_245">
      <path d="m372.205,293.014c-2.202,0 -4.03,-1.789 -4.03,-3.998c0,-2.211 1.75,-4 3.952,-4l0.078,0c2.218,0 3.999,1.789 3.999,4c0,2.209 -1.781,3.998 -3.999,3.998z" id="svg_246" stroke="#e5e5e5" fill="#ffffff"/>
     </g>
    </g>
   </g>
   <g id="svg_247">
    <g id="svg_248">
     <g id="svg_249">
      <path d="m396.199,317.008c-2.203,0 -4.03,-1.789 -4.03,-3.998c0,-2.211 1.749,-4 3.952,-4l0.078,0c2.218,0 3.999,1.789 3.999,4c0,2.209 -1.781,3.998 -3.999,3.998z" id="svg_250" stroke="#e5e5e5" fill="#ffffff"/>
     </g>
    </g>
   </g>
   <g id="svg_251">
    <g id="svg_252">
     <g id="svg_253">
      <path d="m420.192,341.002c-2.202,0 -4.029,-1.789 -4.029,-3.998c0,-2.211 1.749,-4 3.951,-4l0.078,0c2.219,0 4,1.789 4,4c0,2.209 -1.781,3.998 -4,3.998z" id="svg_254" stroke="#e5e5e5" fill="#ffffff"/>
     </g>
    </g>
   </g>
   <g id="svg_255">
    <g id="svg_256">
     <g id="svg_257">
      <path d="m444.187,364.996c-2.202,0 -4.03,-1.789 -4.03,-4c0,-2.209 1.75,-3.998 3.952,-3.998l0.078,0c2.219,0 3.999,1.789 3.999,3.998c0,2.211 -1.781,4 -3.999,4z" id="svg_258" stroke="#e5e5e5" fill="#ffffff"/>
     </g>
    </g>
   </g>
   <g id="svg_259">
    <g id="svg_260">
     <g id="svg_261">
      <path d="m468.181,388.99c-2.202,0 -4.03,-1.789 -4.03,-4c0,-2.209 1.75,-3.998 3.952,-3.998l0.078,0c2.219,0 3.999,1.789 3.999,3.998c0,2.211 -1.781,4 -3.999,4z" id="svg_262" stroke="#e5e5e5" fill="#ffffff"/>
     </g>
    </g>
   </g>
   <g id="svg_263">
    <g id="svg_264">
     <g id="svg_265">
      <path d="m492.175,412.984c-2.203,0 -4.03,-1.789 -4.03,-4c0,-2.209 1.749,-3.998 3.952,-3.998l0.078,0c2.218,0 3.999,1.789 3.999,3.998c0,2.211 -1.781,4 -3.999,4z" id="svg_266" stroke="#e5e5e5" fill="#ffffff"/>
     </g>
    </g>
   </g>
   <g id="svg_267">
    <g id="svg_268">
     <g id="svg_269">
      <path d="m396.199,269.02c-2.203,0 -4.03,-1.787 -4.03,-3.998s1.749,-4 3.952,-4l0.078,0c2.218,0 3.999,1.789 3.999,4s-1.781,3.998 -3.999,3.998z" id="svg_270" stroke="#e5e5e5" fill="#ffffff"/>
     </g>
    </g>
   </g>
   <g id="svg_271">
    <g id="svg_272">
     <g id="svg_273">
      <path d="m420.192,293.014c-2.202,0 -4.029,-1.789 -4.029,-3.998c0,-2.211 1.749,-4 3.951,-4l0.078,0c2.219,0 4,1.789 4,4c0,2.209 -1.781,3.998 -4,3.998z" id="svg_274" stroke="#e5e5e5" fill="#ffffff"/>
     </g>
    </g>
   </g>
   <g id="svg_275">
    <g id="svg_276">
     <g id="svg_277">
      <path d="m444.187,317.008c-2.202,0 -4.03,-1.789 -4.03,-3.998c0,-2.211 1.75,-4 3.952,-4l0.078,0c2.219,0 3.999,1.789 3.999,4c0,2.209 -1.781,3.998 -3.999,3.998z" id="svg_278" stroke="#e5e5e5" fill="#ffffff"/>
     </g>
    </g>
   </g>
   <g id="svg_279">
    <g id="svg_280">
     <g id="svg_281">
      <path d="m468.181,341.002c-2.202,0 -4.03,-1.789 -4.03,-3.998c0,-2.211 1.75,-4 3.952,-4l0.078,0c2.219,0 3.999,1.789 3.999,4c0,2.209 -1.781,3.998 -3.999,3.998z" id="svg_282" stroke="#e5e5e5" fill="#ffffff"/>
     </g>
    </g>
   </g>
   <g id="svg_283">
    <g id="svg_284">
     <g id="svg_285">
      <path d="m492.175,364.996c-2.203,0 -4.03,-1.789 -4.03,-4c0,-2.209 1.749,-3.998 3.952,-3.998l0.078,0c2.218,0 3.999,1.789 3.999,3.998c0,2.211 -1.781,4 -3.999,4z" id="svg_286" stroke="#e5e5e5" fill="#ffffff"/>
     </g>
    </g>
   </g>
   <g id="svg_287">
    <g id="svg_288">
     <g id="svg_289">
      <path d="m444.187,269.02c-2.202,0 -4.03,-1.787 -4.03,-3.998s1.75,-4 3.952,-4l0.078,0c2.219,0 3.999,1.789 3.999,4s-1.781,3.998 -3.999,3.998z" id="svg_290" stroke="#e5e5e5" fill="#ffffff"/>
     </g>
    </g>
   </g>
   <g id="svg_291">
    <g id="svg_292">
     <g id="svg_293">
      <path d="m468.181,293.014c-2.202,0 -4.03,-1.789 -4.03,-3.998c0,-2.211 1.75,-4 3.952,-4l0.078,0c2.219,0 3.999,1.789 3.999,4c0,2.209 -1.781,3.998 -3.999,3.998z" id="svg_294" stroke="#e5e5e5" fill="#ffffff"/>
     </g>
    </g>
   </g>
   <g id="svg_295">
    <g id="svg_296">
     <g id="svg_297">
      <path d="m492.175,317.008c-2.203,0 -4.03,-1.789 -4.03,-3.998c0,-2.211 1.749,-4 3.952,-4l0.078,0c2.218,0 3.999,1.789 3.999,4c0,2.209 -1.781,3.998 -3.999,3.998z" id="svg_298" stroke="#e5e5e5" fill="#ffffff"/>
     </g>
    </g>
   </g>
   <g id="svg_299">
    <g id="svg_300">
     <g id="svg_301">
      <path d="m492.175,269.02c-2.203,0 -4.03,-1.787 -4.03,-3.998s1.749,-4 3.952,-4l0.078,0c2.218,0 3.999,1.789 3.999,4s-1.781,3.998 -3.999,3.998z" id="svg_302" stroke="#e5e5e5" fill="#ffffff"/>
     </g>
    </g>
   </g>
  </g>
  <g id="svg_303">
   <g id="svg_304">
    <g id="svg_305">
     <g id="svg_306">
      <path d="m252.146,205.037c-2.07,0 -3.823,-1.594 -3.983,-3.687c-0.082,-1.07 -7.178,-107.239 82.304,-147.916c2.03,-0.93 4.389,-0.016 5.295,1.984c0.914,2.015 0.031,4.382 -1.983,5.295c-84.447,38.389 -77.719,139.004 -77.641,140.02c0.168,2.203 -1.48,4.124 -3.679,4.296c-0.106,0.008 -0.212,0.008 -0.313,0.008z" id="svg_307" stroke="#ffffff" fill="#999999"/>
     </g>
    </g>
   </g>
   <g id="svg_308">
    <g id="svg_309">
     <g id="svg_310">
      <path d="m316.578,125.057c-15.504,0 -29.805,-7.045 -39.224,-19.339c-8.029,-10.474 -11.498,-23.439 -9.764,-36.514c1.734,-13.075 8.451,-24.697 18.917,-32.718c16.785,-12.864 66.812,-25.447 91.898,-25.447c8.318,0 13.497,1.297 16.293,4.093c2.093,2.093 2.968,5.249 2.679,9.63c-1.397,21.159 -32.249,75.903 -50.791,90.118c-8.7,6.662 -19.073,10.177 -30.008,10.177zm61.828,-106.02c-23.416,0 -71.63,11.989 -87.024,23.799c-8.779,6.725 -14.418,16.457 -15.863,27.415c-1.445,10.958 1.461,21.822 8.178,30.602c7.904,10.302 19.886,16.207 32.882,16.207c9.162,0 17.855,-2.945 25.135,-8.529c16.237,-12.442 45.137,-62.938 47.573,-83.12c0.445,-3.647 -0.242,-4.624 -0.258,-4.631c-0.055,-0.064 -1.843,-1.743 -10.623,-1.743z" id="svg_311" stroke="#ffffff" fill="#999999"/>
     </g>
    </g>
   </g>
   <g id="svg_312">
    <g id="svg_313">
     <g id="svg_314">
      <path d="m205.267,141.053c-4.671,0 -9.232,-0.937 -13.559,-2.789c-15.254,-6.537 -52.307,-45.73 -48.906,-57.892c2.383,-8.49 22.975,-10.271 39.834,-10.271c15.742,0 29.281,1.765 36.217,4.717c17.496,7.499 25.638,27.813 18.156,45.301c-5.448,12.717 -17.906,20.934 -31.742,20.934zm-22.631,-62.953c-19.394,0 -30.734,2.851 -32.289,4.78c-0.511,6.03 29.032,41.396 44.509,48.035c3.323,1.422 6.826,2.14 10.411,2.14c10.63,0 20.206,-6.311 24.393,-16.082c5.744,-13.435 -0.512,-29.04 -13.95,-34.796c-5.812,-2.476 -18.793,-4.077 -33.074,-4.077z" id="svg_315" stroke="#ffffff" fill="#999999"/>
     </g>
    </g>
   </g>
   <g id="svg_316">
    <g id="svg_317">
     <g id="svg_318">
      <path d="m243.792,165.046c-2.21,0 -3.999,-1.788 -3.999,-3.999c0,-24.712 -15.391,-44.871 -45.75,-59.914c-1.976,-0.984 -2.788,-3.382 -1.808,-5.358c0.98,-1.976 3.358,-2.796 5.362,-1.812c32.835,16.277 50.194,39.474 50.194,67.084c0,2.211 -1.789,3.999 -3.999,3.999z" id="svg_319" stroke="#ffffff" fill="#999999"/>
     </g>
    </g>
   </g>
  </g>
  <g id="svg_328">
   <g id="svg_329">
    <g id="svg_330">
     <path d="m507.937,221.033l-503.874,0c-2.21,0 -3.999,-1.789 -3.999,-3.999c0,-2.211 1.789,-3.999 3.999,-3.999l503.873,0c2.21,0 3.999,1.788 3.999,3.999c0.001,2.21 -1.789,3.999 -3.998,3.999z" id="svg_331" fill="#7f3f00"/>
    </g>
   </g>
  </g>
  <g id="svg_332">
   <g id="svg_333">
    <g id="svg_334">
     <path d="m36.056,237.021c-1.023,0 -2.046,-0.39 -2.828,-1.171c-1.562,-1.562 -1.562,-4.093 0,-5.655l15.996,-15.996c1.562,-1.562 4.093,-1.562 5.655,0s1.562,4.093 0,5.655l-15.996,15.996c-0.781,0.78 -1.804,1.171 -2.827,1.171z" id="svg_335" fill="#7f3f00"/>
    </g>
   </g>
  </g>
  <g id="svg_336">
   <g id="svg_337">
    <g id="svg_338">
     <path d="m84.043,237.021c-1.023,0 -2.046,-0.39 -2.828,-1.171c-1.562,-1.562 -1.562,-4.093 0,-5.655l15.996,-15.996c1.562,-1.562 4.093,-1.562 5.655,0s1.562,4.093 0,5.655l-15.996,15.996c-0.78,0.78 -1.804,1.171 -2.827,1.171z" id="svg_339" fill="#7f3f00"/>
    </g>
   </g>
  </g>
  <g id="svg_340">
   <g id="svg_341">
    <g id="svg_342">
     <path d="m132.031,237.021c-1.023,0 -2.046,-0.39 -2.827,-1.171c-1.562,-1.562 -1.562,-4.093 0,-5.655l15.996,-15.996c1.562,-1.562 4.093,-1.562 5.655,0c1.562,1.562 1.562,4.093 0,5.655l-15.996,15.996c-0.781,0.78 -1.804,1.171 -2.828,1.171z" id="svg_343" fill="#7f3f00"/>
    </g>
   </g>
  </g>
  <g id="svg_344">
   <g id="svg_345">
    <g id="svg_346">
     <path d="m180.019,237.021c-1.023,0 -2.046,-0.39 -2.828,-1.171c-1.562,-1.562 -1.562,-4.093 0,-5.655l15.996,-15.996c1.562,-1.562 4.093,-1.562 5.655,0c1.562,1.562 1.562,4.093 0,5.655l-15.996,15.996c-0.781,0.78 -1.804,1.171 -2.827,1.171z" id="svg_347" fill="#7f3f00"/>
    </g>
   </g>
  </g>
  <g id="svg_348">
   <g id="svg_349">
    <g id="svg_350">
     <path d="m228.007,237.021c-1.023,0 -2.046,-0.39 -2.827,-1.171c-1.562,-1.562 -1.562,-4.093 0,-5.655l15.996,-15.996c1.562,-1.562 4.093,-1.562 5.654,0c1.562,1.562 1.562,4.093 0,5.655l-15.996,15.996c-0.78,0.78 -1.804,1.171 -2.827,1.171z" id="svg_351" fill="#7f3f00"/>
    </g>
   </g>
  </g>
  <g id="svg_352">
   <g id="svg_353">
    <g id="svg_354">
     <path d="m275.995,237.021c-1.023,0 -2.047,-0.39 -2.828,-1.171c-1.562,-1.562 -1.562,-4.093 0,-5.655l15.996,-15.996c1.562,-1.562 4.093,-1.562 5.655,0c1.562,1.562 1.562,4.093 0,5.655l-15.996,15.996c-0.781,0.78 -1.803,1.171 -2.827,1.171z" id="svg_355" fill="#7f3f00"/>
    </g>
   </g>
  </g>
  <g id="svg_356">
   <g id="svg_357">
    <g id="svg_358">
     <path d="m323.983,237.021c-1.023,0 -2.047,-0.39 -2.828,-1.171c-1.562,-1.562 -1.562,-4.093 0,-5.655l15.996,-15.996c1.562,-1.562 4.093,-1.562 5.654,0c1.562,1.562 1.562,4.093 0,5.655l-15.995,15.996c-0.781,0.78 -1.804,1.171 -2.827,1.171z" id="svg_359" fill="#7f3f00"/>
    </g>
   </g>
  </g>
  <g id="svg_360">
   <g id="svg_361">
    <g id="svg_362">
     <path d="m371.971,237.021c-1.023,0 -2.046,-0.39 -2.827,-1.171c-1.562,-1.562 -1.562,-4.093 0,-5.655l15.996,-15.996c1.562,-1.562 4.092,-1.562 5.654,0s1.562,4.093 0,5.655l-15.996,15.996c-0.781,0.78 -1.804,1.171 -2.827,1.171z" id="svg_363" fill="#7f3f00"/>
    </g>
   </g>
  </g>
  <g id="svg_364">
   <g id="svg_365">
    <g id="svg_366">
     <path d="m419.958,237.021c-1.022,0 -2.046,-0.39 -2.827,-1.171c-1.562,-1.562 -1.562,-4.093 0,-5.655l15.996,-15.996c1.562,-1.562 4.093,-1.562 5.655,0c1.562,1.562 1.562,4.093 0,5.655l-15.996,15.996c-0.781,0.78 -1.805,1.171 -2.828,1.171z" id="svg_367" fill="#7f3f00"/>
    </g>
   </g>
  </g>
  <g id="svg_368">
   <g id="svg_369">
    <g id="svg_370">
     <path d="m467.946,237.021c-1.023,0 -2.046,-0.39 -2.827,-1.171c-1.562,-1.562 -1.562,-4.093 0,-5.655l15.996,-15.996c1.562,-1.562 4.093,-1.562 5.654,0c1.562,1.562 1.562,4.093 0,5.655l-15.995,15.996c-0.781,0.78 -1.804,1.171 -2.828,1.171z" id="svg_371" fill="#7f3f00"/>
    </g>
   </g>
  </g>
  <g id="svg_612" stroke="null">
   <g id="svg_613" stroke="null">
    <g id="svg_614" stroke="null">
     <path d="m252.001,436.978999c-2.21,0 -3.999,-2.15248 -3.999,-4.812699l0,-221.32881c0,-2.659016 1.789,-4.811496 3.999,-4.811496s3.999,2.15248 3.999,4.811496l0,221.327607c0,2.660219 -1.789,4.813902 -3.999,4.813902z" id="svg_615" stroke="null" fill="#999999"/>
    </g>
   </g>
  </g>
  <g id="svg_616">
   <g id="svg_617">
    <g id="svg_618">
     <path d="m275.995,396.988c-2.211,0 -3.999,-1.789 -3.999,-4l0,-79.978c0,-2.211 1.788,-4 3.999,-4c2.21,0 3.999,1.789 3.999,4l0,79.979c0,2.21 -1.789,3.999 -3.999,3.999z" id="svg_619" fill="#999999"/>
    </g>
   </g>
  </g>
  <g id="svg_620" stroke="null">
   <g id="svg_621" stroke="null">
    <g id="svg_622" stroke="null">
     <path d="m228.007,372.994c-2.21,0 -3.999,-1.789 -3.999,-4l0,-39.988c0,-2.211 1.789,-4 3.999,-4c2.211,0 3.999,1.789 3.999,4l0,39.988c0,2.211 -1.788,4 -3.999,4z" id="svg_623" fill="#999999" stroke="null"/>
    </g>
   </g>
  </g>
  <g id="svg_624">
   <g id="svg_625">
    <g id="svg_626">
     <path d="m228.007,333.004c-2.21,0 -3.999,-1.789 -3.999,-3.998c0,-11.021 8.971,-19.996 19.995,-19.996c2.21,0 3.999,1.789 3.999,4c0,2.209 -1.789,3.998 -3.999,3.998c-6.615,0 -11.997,5.381 -11.997,11.998c0,2.209 -1.788,3.998 -3.999,3.998z" id="svg_627" fill="#999999"/>
    </g>
   </g>
  </g>
  <g id="svg_628">
   <g id="svg_629">
    <g id="svg_630">
     <path d="m275.995,317.008c-2.211,0 -3.999,-1.789 -3.999,-3.998c0,-6.615 -5.382,-11.998 -11.997,-11.998c-2.211,0 -3.999,-1.789 -3.999,-3.998c0,-2.211 1.788,-4 3.999,-4c11.028,0 19.995,8.975 19.995,19.996c0,2.209 -1.789,3.998 -3.999,3.998z" id="svg_631" fill="#999999"/>
    </g>
   </g>
  </g>
  <g id="svg_632">
   <g id="svg_633">
    <g id="svg_634">
     <path d="m291.991,349c-2.211,0 -3.999,-1.789 -3.999,-3.998c0,-6.617 -5.382,-11.998 -11.997,-11.998c-2.211,0 -3.999,-1.789 -3.999,-3.998c0,-2.211 1.788,-4 3.999,-4c11.028,0 19.994,8.975 19.994,19.996c0,2.209 -1.788,3.998 -3.998,3.998z" id="svg_635" stroke="#b2b2b2" fill="#999999"/>
    </g>
   </g>
  </g>
  <g id="svg_636">
   <g id="svg_637">
    <g id="svg_638">
     <path d="m220.009,356.998c-2.21,0 -3.999,-1.789 -3.999,-4c0,-2.209 1.789,-3.998 3.999,-3.998c2.207,0 3.999,-1.789 3.999,-3.998c0,-2.211 1.789,-4 3.999,-4c2.211,0 3.999,1.789 3.999,4c0,6.615 -5.381,11.996 -11.997,11.996z" id="svg_639" fill="#999999"/>
    </g>
   </g>
  </g>
  <g id="svg_640">
   <g id="svg_641">
    <g id="svg_642">
     <path d="m283.993,404.986c-6.615,0 -11.997,-5.383 -11.997,-11.998c0,-2.209 1.788,-3.998 3.999,-3.998c2.21,0 3.999,1.789 3.999,3.998c0,2.211 1.796,4 3.999,4c2.21,0 3.999,1.789 3.999,3.998c0,2.211 -1.789,4 -3.999,4z" id="svg_643" fill="#999999"/>
    </g>
   </g>
  </g>
  <g id="svg_644" stroke="null">
   <g id="svg_645" stroke="null">
    <g id="svg_646" stroke="null">
     <path d="m220.009,380.992c-2.21,0 -3.999,-1.789 -3.999,-4c0,-2.209 1.789,-3.998 3.999,-3.998c2.207,0 3.999,-1.789 3.999,-4c0,-2.209 1.789,-3.998 3.999,-3.998c2.211,0 3.999,1.789 3.999,3.998c0,6.617 -5.381,11.998 -11.997,11.998z" id="svg_647" stroke="null" fill="#999999"/>
    </g>
   </g>
  </g>
  <text x="0" y="527" fill="#000000" font-size="5px" font-weight="bold" font-family="'Helvetica Neue', Helvetica, Arial-Unicode, Arial, Sans-serif" id="svg_648">Created by lastspark</text>
  <text x="0" y="532" fill="#000000" font-size="5px" font-weight="bold" font-family="'Helvetica Neue', Helvetica, Arial-Unicode, Arial, Sans-serif" id="svg_649">from the Noun Project</text>
  <!--text style="cursor: move;" stroke="#ffffff" transform="matrix(11.081700242166125,0,0,7.4811390588725315,5610.38341963663,-925.0447542161885) " xml:space="preserve" text-anchor="start" font-family="Helvetica, Arial, sans-serif" font-size="24" id="svg_650" y="195.137204" x="-476.529776" stroke-width="0" fill="#bf0000">X</text-->
 </g>
</svg>
