
<svg xmlns="http://www.w3.org/2000/svg" xmlns:xlink="http://www.w3.org/1999/xlink" viewBox="0 0 313.89 367.45">
    <defs>
        <style>
            .cls-1{fill:none;}
            .cls-2{fill:#6b6b6b;}
            .cls-3{fill:#808080;}
            .cls-4{fill:#999999;}
            .cls-5{fill:#4a4a4a;}
            .cls-6{clip-path:url(#clip-path);}
            .cls-7{fill:#fff;}</style>
        <clipPath id="clip-path" transform="translate(-265.88 -173.6)">
            <rect class="cls-1" x="374.04" y="302.44" width="88.63" height="70.52" />
        </clipPath>
    </defs>
    <title>plantwomistv4</title>
    <g id="root">
        <path class="cls-2" d="M416,541.05s.26-.74.59-2.15a47.19,47.19,0,0,0,1-6.21,59.14,59.14,0,0,0,0-9.73,67.71,67.71,0,0,0-2.14-12.43c-.26-1.13-.62-2.25-1-3.4s-.71-2.33-1.18-3.49l-1.36-3.58c-.48-1.21-1-2.43-1.46-3.69a142.86,142.86,0,0,1-5.16-16.11,106.4,106.4,0,0,1-3-17.82,90.35,90.35,0,0,1,.51-18.65,79.7,79.7,0,0,1,5-18.07c.58-1.38,1.09-2.86,1.63-4.27.26-.71.57-1.41.78-2.13l.66-2.12.66-2.11c.22-.71.38-1.43.57-2.14.35-1.42.77-2.82,1.05-4.24s.6-2.82.89-4.21.49-2.79.73-4.16.44-2.74.64-4.09.4-2.68.54-4c.65-5.27,1-10.29,1.3-14.92s.43-8.89.52-12.67.15-7.06.18-9.77c.07-5.43.15-8.53.15-8.53s.1,3.1.26,8.52c.06,2.72.15,6,.18,9.79s0,8.05-.12,12.71-.44,9.7-1,15A147.32,147.32,0,0,1,415,409.06a104.14,104.14,0,0,1-5.26,17.33A78,78,0,0,0,404.88,444a88.08,88.08,0,0,0-.57,18.27,109.76,109.76,0,0,0,2.77,17.56,161.25,161.25,0,0,0,4.82,16c.44,1.26.92,2.5,1.37,3.72s.86,2.44,1.28,3.63.78,2.4,1.12,3.57.68,2.32.92,3.48.55,2.25.73,3.36.36,2.19.54,3.24.22,2.1.33,3.1.12,2,.18,2.94a60,60,0,0,1-.39,9.81,40.15,40.15,0,0,1-1.24,6.19A21.17,21.17,0,0,1,416,541.05Z" transform="translate(-265.88 -173.6)" />
        <path class="cls-2" d="M369.26,413.6l.35-.39c.24-.25.59-.62,1.07-1s1.07-.93,1.79-1.47a21,21,0,0,1,2.53-1.62,17.21,17.21,0,0,1,1.55-.77l.83-.36.89-.31c.3-.1.6-.22.92-.3l1-.24a13.44,13.44,0,0,1,2-.34c.69-.1,1.41-.07,2.14-.11s1.46.11,2.19.18l2.18.48c.71.17,1.42.37,2.12.51,1.39.3,2.81.57,4.22.74s2.8.33,4.15.42c2.7.19,5.24.26,7.42.41,1.1.07,2.1.17,3,.31s1.65.28,2.28.43l.83.24.59.24.5.2-.52-.13c-.16,0-.36-.1-.61-.15l-.83-.13a21.06,21.06,0,0,0-2.27-.2c-.88,0-1.88,0-3,0-2.17,0-4.71.11-7.46,0-.68,0-1.38-.05-2.09-.11s-1.42-.1-2.14-.19c-1.44-.17-2.9-.41-4.36-.72-.73-.16-1.43-.37-2.14-.54l-2.06-.48c-.68-.07-1.37-.16-2-.21a19,19,0,0,0-2,0c-.65.08-1.3.1-1.92.24l-.93.18c-.3.06-.6.16-.89.24s-.58.15-.86.24l-.82.3c-.55.18-1.05.42-1.55.63-1,.44-1.84.91-2.6,1.34s-1.39.88-1.9,1.25-.92.67-1.18.89Z" transform="translate(-265.88 -173.6)" />
        <path class="cls-2" d="M354.94,446a3.65,3.65,0,0,1,.54-.17,14,14,0,0,1,1.56-.28c.67-.1,1.5-.18,2.45-.25s2-.14,3.18-.16,2.44-.05,3.78,0,2.75,0,4.21.1,3,.11,4.49.2l4.62.26c1.55.09,3.09.19,4.62.26s3,.15,4.46.18l2.13,0c.7,0,1.37,0,2,0,1.32,0,2.56-.11,3.71-.21a28.11,28.11,0,0,0,3.08-.52,15.34,15.34,0,0,0,2.3-.73l.82-.34.59-.3.49-.26-.45.32-.55.37-.79.44a15.73,15.73,0,0,1-2.26,1c-.45.18-.95.28-1.46.44s-1.08.23-1.66.36a36.77,36.77,0,0,1-3.78.44c-1.34.09-2.76.15-4.22.14-.74,0-1.48,0-2.23,0s-1.52,0-2.28-.06c-1.53-.05-3.09-.13-4.64-.21l-4.63-.3-4.47-.32-4.18-.27-3.74-.19c-2.32-.09-4.26-.15-5.61-.09-.68,0-1.21.06-1.57.1A3.19,3.19,0,0,0,354.94,446Z" transform="translate(-265.88 -173.6)" />
        <path class="cls-2" d="M408.85,425.54s.72.7,2,1.88,3.16,2.83,5.49,4.69c1.17.92,2.46,1.91,3.85,2.89.69.5,1.43,1,2.17,1.46s1.53,1,2.34,1.41c.41.23.81.47,1.22.68l1.27.64.32.16.31.13c.23.09.45.2.68.28.43.14.86.3,1.33.42a28.37,28.37,0,0,0,5.82.85c2,.13,4,.15,6,.18s4,.07,5.89.17a41.48,41.48,0,0,1,10.3,1.66,23,23,0,0,1,3.85,1.56c.55.27,1,.58,1.5.83l1.22.81a19.42,19.42,0,0,1,1.59,1.28l.53.48-.58-.42c-.19-.14-.42-.32-.7-.5l-1-.62-1.26-.7c-.48-.21-1-.48-1.54-.7a27.74,27.74,0,0,0-3.86-1.27,34.53,34.53,0,0,0-4.75-.85c-1.7-.2-3.52-.3-5.41-.37s-3.86,0-5.86-.05-4,0-6.09-.14a29.71,29.71,0,0,1-6.08-.94c-.49-.13-1-.31-1.47-.49-.24-.09-.45-.2-.68-.29l-.35-.16-.33-.18-1.29-.68c-.42-.23-.82-.49-1.23-.73-.83-.47-1.59-1-2.35-1.51s-1.47-1-2.15-1.58c-1.38-1-2.62-2.11-3.74-3.11s-2.12-1.95-3-2.82-1.6-1.64-2.19-2.28-1-1.17-1.35-1.52Z" transform="translate(-265.88 -173.6)" />
        <path class="cls-2" d="M451,497.49l-.12,0-.37,0c-.33,0-.82,0-1.44.06-1.23.05-3,.19-5.12.28s-4.59.19-7.25.21c-1.32,0-2.69,0-4.08,0s-2.81-.09-4.22-.17-2.82-.23-4.21-.39l-1.05-.14-1-.18a20.27,20.27,0,0,1-2-.44c-.66-.15-1.27-.38-1.89-.57s-1.18-.46-1.73-.73a19.2,19.2,0,0,1-3-1.71c-.87-.61-1.61-1.22-2.26-1.75a12.8,12.8,0,0,0-1.75-1.25,4,4,0,0,0-1.31-.42l-.51,0,.51-.05a3.75,3.75,0,0,1,1.42.26A41.5,41.5,0,0,1,414,493a22.66,22.66,0,0,0,3,1.44c.54.23,1.12.4,1.69.6s1.2.36,1.82.47a34,34,0,0,0,3.93.62c1.36.15,2.75.25,4.15.34s2.79.16,4.17.22l4.05.15L444,497c2.11.06,3.87.16,5.11.23.61,0,1.1.09,1.42.13a3.36,3.36,0,0,1,.38.07Z" transform="translate(-265.88 -173.6)" />
        <path class="cls-2" d="M407,482.34s.06.18.17.54a14.28,14.28,0,0,1,.34,1.58,18,18,0,0,1,.24,2.5c0,.49,0,1,0,1.55s-.09,1.11-.15,1.71-.21,1.2-.32,1.84-.36,1.27-.54,1.94-.5,1.31-.8,2l-.5,1a9.52,9.52,0,0,1-.56,1,21.21,21.21,0,0,1-2.87,3.71c-.58.56-1.13,1.17-1.74,1.68l-1.79,1.59L394.87,508c-1.2,1-2.4,2-3.52,3s-2.19,1.93-3.16,2.88c-.49.46-.91,1-1.36,1.41s-.81.94-1.15,1.4a11.9,11.9,0,0,0-.92,1.39l-.39.66c-.12.22-.19.45-.29.66s-.17.43-.26.63-.1.42-.15.61l-.14.57c0,.19,0,.36-.06.53,0,.34-.06.64-.06.91s0,.49,0,.67l0,.57s0-.2-.12-.56c0-.18-.08-.41-.13-.68a6.42,6.42,0,0,1,0-.92,5.23,5.23,0,0,1,0-.56c0-.19.05-.39.09-.6l.09-.65.21-.68a6.91,6.91,0,0,1,.24-.73c.1-.23.21-.48.33-.73a11.5,11.5,0,0,1,.85-1.51c.32-.52.71-1,1.09-1.54s.85-1,1.32-1.53c.94-1,2-2,3.09-3.06s2.26-2.05,3.45-3.07l3.61-3.11,1.81-1.57c.61-.51,1.12-1.06,1.68-1.59a23.08,23.08,0,0,0,2.81-3.45c.42-.59.71-1.24,1.08-1.83s.57-1.24.85-1.84.45-1.23.62-1.82.35-1.18.43-1.75.22-1.12.27-1.64a14,14,0,0,0,.14-1.5,18.39,18.39,0,0,0,0-2.47A16.33,16.33,0,0,0,407,482.34Z" transform="translate(-265.88 -173.6)" />
        <path class="cls-2" d="M413.79,505.3a18.49,18.49,0,0,1,1.68.81c.53.28,1.16.64,1.86,1.08l1.11.72,1.19.84,1.26,1,1.3,1.09,1.32,1.21c.45.42.87.87,1.32,1.32.86.93,1.75,1.9,2.55,2.95.43.51.8,1.06,1.2,1.6l.58.82.55.85,1.05,1.68c.36.55.69,1.12,1.06,1.64l1.1,1.53,1.17,1.45c.4.46.83.88,1.22,1.33s.84.81,1.24,1.21.85.72,1.25,1.07l1.23.93a27,27,0,0,0,2.31,1.44c.72.38,1.37.69,1.91.91a11.37,11.37,0,0,0,1.77.59l-.49-.05a12.38,12.38,0,0,1-1.37-.3,15.64,15.64,0,0,1-2.05-.7c-.4-.16-.79-.36-1.22-.55s-.85-.47-1.3-.71l-1.36-.87c-.44-.33-.91-.67-1.37-1s-.91-.77-1.36-1.19-.89-.87-1.33-1.33l-1.28-1.46q-.6-.78-1.2-1.59c-.38-.54-.72-1.1-1.09-1.65l-1.07-1.67-.52-.83-.56-.8c-.37-.53-.73-1.07-1.14-1.57-.78-1-1.58-2-2.39-2.94-.42-.45-.82-.9-1.22-1.34s-.83-.84-1.22-1.25l-1.2-1.14-1.16-1c-.75-.65-1.46-1.23-2.1-1.74s-1.21-.92-1.69-1.26l-1.13-.77Z" transform="translate(-265.88 -173.6)" />
        <path class="cls-2" d="M352.74,477.56s.87,0,2.4.19,3.71.41,6.31.83c1.31.2,2.71.43,4.2.71s3.05.57,4.66.92,3.28.69,5,1.09c.83.19,1.7.41,2.53.59s1.69.34,2.53.45a16.55,16.55,0,0,0,5,0,12.91,12.91,0,0,0,4.54-1.7c1.38-.83,2.64-1.82,3.88-2.74a20.37,20.37,0,0,1,3.72-2.31,12,12,0,0,1,3.54-1,15.11,15.11,0,0,1,2.79-.08,13.29,13.29,0,0,1,1.78.24l.62.11-.63,0c-.41,0-1,0-1.77,0a13.89,13.89,0,0,0-2.71.32,13.13,13.13,0,0,0-3.3,1.22,23,23,0,0,0-3.46,2.42,39.41,39.41,0,0,1-3.88,3,13.47,13.47,0,0,1-4.91,2,17.46,17.46,0,0,1-5.4.09,26.62,26.62,0,0,1-2.63-.5c-.88-.19-1.7-.41-2.55-.61l-4.92-1.21c-3.19-.77-6.18-1.46-8.74-2s-4.71-1.05-6.21-1.33S352.74,477.56,352.74,477.56Z" transform="translate(-265.88 -173.6)" />
        <path class="cls-2" d="M396,506.17a6.29,6.29,0,0,0-.85,1.06,9.09,9.09,0,0,0-.76,1.33c-.14.26-.24.55-.37.85s-.22.64-.33,1-.19.71-.26,1.09-.15.77-.19,1.18-.09.82-.1,1.26,0,.87,0,1.31l.09,1.37.18,1.4c.14.93.35,1.88.56,2.86s.36,2,.51,2.94.21,2,.26,2.89.05,1.84,0,2.7-.1,1.67-.19,2.41-.21,1.42-.34,2-.27,1.11-.39,1.52a11.39,11.39,0,0,1-.47,1.28s.1-.48.2-1.33c.05-.43.1-.95.14-1.54s.06-1.27.07-2c0-.37,0-.75,0-1.14s0-.8,0-1.22c0-.84-.12-1.72-.2-2.63s-.24-1.84-.37-2.79-.32-1.89-.54-2.87-.39-2-.53-3c0-.5-.1-1-.14-1.48s0-1,0-1.45.06-.94.1-1.39.14-.9.21-1.33.2-.84.31-1.23.27-.77.4-1.12.31-.68.47-1,.34-.59.52-.84a8.38,8.38,0,0,1,1-1.25,6.2,6.2,0,0,1,.77-.68A2.43,2.43,0,0,1,396,506.17Z" transform="translate(-265.88 -173.6)" />
        <path class="cls-2" d="M404.28,453a2.2,2.2,0,0,0-.06.5,4.71,4.71,0,0,0,.2,1.37,7.78,7.78,0,0,0,.92,1.9,14.21,14.21,0,0,0,1.74,2.08,13,13,0,0,0,1.14,1.06c.4.35.82.72,1.29,1.06s.91.7,1.42,1,1,.71,1.53,1,1.09.69,1.6,1l1.74.94c.59.3,1.18.52,1.77.79s1.24.43,1.85.65,1.27.34,1.91.51,1.29.24,1.93.33c1.3.15,2.59.27,3.86.31s2.51.11,3.69.21l1.71.2c.55.12,1.09.22,1.59.34l1.42.44,1.22.54a7.69,7.69,0,0,1,1,.57c.31.18.59.34.84.51.95.73,1.47,1.15,1.47,1.15l-1.6-.92-.89-.41a8.78,8.78,0,0,0-1.05-.43l-1.23-.38-1.39-.3c-.5-.08-1-.13-1.55-.2s-1.09-.07-1.67-.09c-1.16,0-2.38,0-3.67,0a36.32,36.32,0,0,1-4-.2c-.68-.09-1.36-.2-2-.32s-1.36-.3-2-.52-1.32-.42-2-.71-1.28-.56-1.88-.87l-1.71-1c-.6-.38-1.11-.74-1.65-1.09s-1-.75-1.53-1.12-.95-.76-1.4-1.15-.87-.78-1.26-1.18a13.21,13.21,0,0,1-1.09-1.19,13,13,0,0,1-1.61-2.36,8.59,8.59,0,0,1-.74-2.1,4.16,4.16,0,0,1,0-1.45A2.44,2.44,0,0,1,404.28,453Z" transform="translate(-265.88 -173.6)" />
        <path class="cls-2" d="M416.67,394l2,1.14,5.26,3.05,7.38,4.38,8.44,5,2.15,1.26a23.45,23.45,0,0,0,2.16,1.12,21.46,21.46,0,0,0,4.51,1.43c1.52.32,3.05.45,4.51.61a33.36,33.36,0,0,1,4.13.59,13.14,13.14,0,0,1,3.32,1.21,12.36,12.36,0,0,1,2.21,1.51,11.76,11.76,0,0,1,1.22,1.19l.4.45-.46-.39a6.77,6.77,0,0,0-.56-.45c-.22-.17-.48-.37-.78-.57a12.28,12.28,0,0,0-2.29-1.24,14.37,14.37,0,0,0-3.26-.89c-1.23-.18-2.6-.27-4.07-.34a39.3,39.3,0,0,1-4.65-.46,20.65,20.65,0,0,1-4.82-1.44,23.19,23.19,0,0,1-2.28-1.16l-2.16-1.3c-1.44-.88-2.88-1.74-4.27-2.63l-4.08-2.59c-2.64-1.71-5.08-3.33-7.16-4.74s-3.79-2.61-5-3.45Z" transform="translate(-265.88 -173.6)" />
    </g>
    <g id="plant">
        <path class="cls-3" d="M402,196.13s-29.32-35.32-67.28-17.52-60.23,14.49-68.81,12.87c5.2,17,53.86,46.49,95.69,28S402,196.13,402,196.13Z" transform="translate(-265.88 -173.6)" />
        <path class="cls-4" d="M402,196.13s-27.26-22.11-65.22-4.31-62.29,1.28-70.87-.34c5.2,17,53.86,46.49,95.69,28S402,196.13,402,196.13Z" transform="translate(-265.88 -173.6)" />
        <path class="cls-5" d="M419.16,245.59c-.43-3.3-3.77-13.82-4.66-17.83a113.33,113.33,0,0,0-3.59-12.82,69,69,0,0,0-6.35-13.61,38.89,38.89,0,0,0-11.19-12,31.68,31.68,0,0,0-3.78-2.13,28.14,28.14,0,0,0-4.11-1.53c-.7-.23-1.43-.36-2.14-.54s-1.45-.29-2.18-.36l-1.09-.12-1.09-.08-2.13-.14a86.08,86.08,0,0,0-17.06,1.14,147.05,147.05,0,0,0-16,3.65c-5.1,1.41-10,3-14.59,4.29A131.79,131.79,0,0,1,316,196.73a59.73,59.73,0,0,1-11.41,1.05,38.38,38.38,0,0,1-8.79-1.15,37.15,37.15,0,0,1-5.41-1.91l-1.84-.86,1.79,1c.58.33,1.34.63,2.23,1s1.94.73,3.12,1.15a39.37,39.37,0,0,0,8.88,1.52,55.12,55.12,0,0,0,11.66-.69,134.79,134.79,0,0,0,13.39-3c4.69-1.23,9.59-2.63,14.67-4a157.42,157.42,0,0,1,15.82-3.45,84.39,84.39,0,0,1,16.6-1.05l2.13.13,1,.07,1,.11c.68.06,1.34.22,2,.32s1.33.28,2,.49a27.21,27.21,0,0,1,3.81,1.41,29.51,29.51,0,0,1,3.52,2,33.26,33.26,0,0,1,6,5.17,46.07,46.07,0,0,1,4.72,6.17,72.37,72.37,0,0,1,6.48,13.18A109.93,109.93,0,0,1,413.37,228c1.93,7.93,4.32,16.24,4.88,21C418.53,251.3,419.6,248.88,419.16,245.59Z" transform="translate(-265.88 -173.6)" />
        <polygon class="cls-5" points="154.01 134.56 151.68 134.44 152.3 71.64 154.01 71.77 154.01 134.56" />
        <path class="cls-3" d="M444,196.08s33.12-31.78,68.82-9.8,58.22,21.19,66.92,20.55c-7.09,16.34-58.77,40.12-98.24,17S444,196.08,444,196.08Z" transform="translate(-265.88 -173.6)" />
        <path class="cls-4" d="M444,196.08c-2.38.08,19-20.9,64.33,4.35,33.45,18.62,62.71,7,71.41,6.4-7.09,16.34-58.77,40.12-98.24,17S444,196.08,444,196.08Z" transform="translate(-265.88 -173.6)" />
        <path class="cls-5" d="M418.34,249.22s-.09.61.16-.64.35-3.38.92-5.69.7-2.67,1.39-6.19c1-3.18,3.1-9.17,4.64-13a111.77,111.77,0,0,1,5.62-12.06,68.61,68.61,0,0,1,8.47-12.4,38.87,38.87,0,0,1,13-10.05,31.9,31.9,0,0,1,4.07-1.49,29.86,29.86,0,0,1,4.31-.85c.73-.11,1.46-.12,2.2-.18s1.47-.05,2.2,0l1.11.05,1.08.1,2.12.21a86.53,86.53,0,0,1,16.66,3.88,148.29,148.29,0,0,1,15.17,6.2c4.81,2.22,9.35,4.52,13.7,6.6a134,134,0,0,0,12.48,5.33A60.19,60.19,0,0,0,538.72,212a38.38,38.38,0,0,0,8.86.28,37.77,37.77,0,0,0,5.65-1l2-.56-1.93.66c-.62.24-1.43.41-2.36.66a32,32,0,0,1-3.27.62,38.72,38.72,0,0,1-9,.06,54.11,54.11,0,0,1-11.39-2.57A134.3,134.3,0,0,1,514.49,205c-4.43-2-9-4.16-13.83-6.32a161.79,161.79,0,0,0-15-6A84.28,84.28,0,0,0,469.4,189l-2.12-.22-1-.1-1-.05c-.68-.06-1.36,0-2.05,0s-1.36.07-2,.17a26.63,26.63,0,0,0-4,.76,29.11,29.11,0,0,0-3.8,1.37,33.88,33.88,0,0,0-6.79,4.12,46.11,46.11,0,0,0-5.65,5.32,72.83,72.83,0,0,0-8.54,12,111.16,111.16,0,0,0-5.86,11.8c-3.2,7.51-5.53,19.3-6.85,23.87-.66,2.28-.95-1.24-1.26,0S418.34,249.22,418.34,249.22Z" transform="translate(-265.88 -173.6)" />
    </g>
    <g id="pebbles">
        <circle class="cls-2" cx="150.46" cy="164.16" r="11" />
        <circle class="cls-2" cx="169.46" cy="172.16" r="11" />
        <circle class="cls-2" cx="169.46" cy="153.16" r="11" />
        <circle class="cls-2" cx="151.46" cy="142.16" r="11" />
        <circle class="cls-2" cx="130.46" cy="153.16" r="11" />
        <circle class="cls-2" cx="134.54" cy="171.16" r="11" />
        <circle class="cls-2" cx="151.46" cy="186.16" r="11" />
        <ellipse class="cls-2" cx="171.96" cy="188.24" rx="10.5" ry="9.87" />
        <circle class="cls-2" cx="131.05" cy="187.38" r="10.58" />
        <circle class="cls-2" cx="174.81" cy="142.93" r="11" />
        <circle class="cls-2" cx="132.51" cy="141.65" r="11" />
    </g>
    <g id="soil">
        <path class="cls-2" d="M421.52,300.59l5.44.06-1.29-2.26-1.56.78a1.51,1.51,0,0,0-1.06,2.56,6.31,6.31,0,0,0,4,1.66c2.29.11,8.7-3.18,9.85-.1a1.55,1.55,0,0,0,1.45,1.1l5.71-.14a1.5,1.5,0,0,0,0-3c-9.26-.85-18.52-1.84-27.83-2.1l-13.76-.35c-3.52-.1-6.59-.34-9.84,1.14-1.21.55-.81,2.44.36,2.74a75.21,75.21,0,0,0,29.72,1.71c1.91-.27,1.1-3.16-.79-2.89a71.6,71.6,0,0,1-28.14-1.71l.36,2.74c3.92-1.78,9.69-.7,14-.59,3.8.1,7.61.17,11.42.31,8.19.31,16.36,1.25,24.52,2v-3l-5.71.14,1.45,1.1a5,5,0,0,0-3.56-3.44c-3.52-1-8,3-11.07.56l-1.06,2.56a3.72,3.72,0,0,0,4.15-2.26,1.52,1.52,0,0,0-1.3-2.26l-5.44-.06c-1.93,0-1.93,3,0,3Z" transform="translate(-265.88 -173.6)" />
        <path class="cls-2" d="M413.55,298.82l-5.09-2a1.5,1.5,0,0,0-1.84,1.05,1.53,1.53,0,0,0,1,1.85l5.09,2a1.5,1.5,0,0,0,.8-2.89Z" transform="translate(-265.88 -173.6)" />
    </g>
    <g id="pod">
        <g class="cls-6">
            <g id="pod-2" data-name="pod">
                <path d="M414.56,303.15c-10.08,0-20.3-.16-30.5.12-2.56.08-7.17,1.44-7.26,2.49-.39,5.35-1.4,12.13,1.34,15.75a17.13,17.13,0,0,1,3.75,8.4c1.05,8.46,1.83,16.94,2.59,25.43.47,5.27.86,12.89.86,18.16,0,3.08,64.39,4.41,64.66,0,.8-13.81,2.77-32.86,4.35-46.6.2-1.67,2.06-3.13,3.09-4.73.64-1,1.6-2,1.64-3.06.18-5,.09-10.09.09-16.08H424.43m-40.32,20h14.63q1.26,24.13,2.47,47.58c-.64.53-.94,1-1.28,1-10.59,1.17-10.75,1.19-11.93-9.23C386.56,349.57,385.44,336.7,384.11,323Zm17.56-.14h14.42v48.8H404.18C403.36,355.59,402.53,339.56,401.67,322.9Zm18.19,48.52V322.69H434c-.73,16.17-1.44,32.17-2.18,48.73Zm27.15.28H434.63c.82-16.27,1.6-32.25,2.42-48.82h14.63C450.14,339.11,448.61,355.08,447,371.7Zm9-65V318.9H379.65V306.67ZM421.53,301c0,.5-.55,1-1.86,1.44" transform="translate(-265.88 -173.6)" />
                <path d="M379.65,318.9V306.68h76.4V318.9Z" transform="translate(-265.88 -173.6)" />
                <path class="cls-7" d="M421.53,301c0,.5-.55,1-1.86,1.44" transform="translate(-265.88 -173.6)" />
                <rect x="110.42" y="129.68" width="7.76" height="10.73" />
                <rect x="121.51" y="197.16" width="60.86" height="2.74" />
            </g>
        </g>
    </g>
</svg>
