<svg xmlns="http://www.w3.org/2000/svg" xmlns:xlink="http://www.w3.org/1999/xlink" viewBox="0 0 319.67 376.39">
    <defs>
        <style>.cls-1{fill:none;}.cls-10,.cls-2,.cls-24,.cls-28,.cls-9{opacity:0.16;}.cls-2{fill:url(#linear-gradient);}.cls-3{clip-path:url(#clip-path);}.cls-4{opacity:0.14;fill:url(#linear-gradient-2);}.cls-5,.cls-6,.cls-7{opacity:0.08;}.cls-5{fill:url(#linear-gradient-3);}.cls-6{fill:url(#linear-gradient-4);}.cls-7{fill:url(#linear-gradient-5);}.cls-19,.cls-8{opacity:0.24;}.cls-8{fill:url(#linear-gradient-6);}.cls-9{fill:url(#linear-gradient-7);}.cls-10{fill:url(#linear-gradient-8);}.cls-11{opacity:0.15;fill:url(#linear-gradient-9);}.cls-12{fill:#6e451b;}.cls-13{fill:#549442;}.cls-14{fill:#7cac41;}.cls-15{fill:#467b3a;}.cls-16{clip-path:url(#clip-path-2);}.cls-17{fill:#fff;}.cls-18{clip-path:url(#clip-path-3);}.cls-19{fill:url(#linear-gradient-10);}.cls-20{opacity:0.26;fill:url(#linear-gradient-11);}.cls-21{opacity:0.22;fill:url(#linear-gradient-12);}.cls-22,.cls-23,.cls-29{opacity:0.2;}.cls-22{fill:url(#linear-gradient-13);}.cls-23{fill:url(#linear-gradient-14);}.cls-24{fill:url(#linear-gradient-15);}.cls-25{opacity:0.18;fill:url(#linear-gradient-16);}.cls-26{opacity:0.94;}.cls-27{opacity:0.34;fill:url(#linear-gradient-17);}.cls-28{fill:url(#linear-gradient-18);}.cls-29{fill:url(#linear-gradient-19);}</style>
        <linearGradient id="linear-gradient" x1="159.05" y1="144.25" x2="159.05" y2="346.11" gradientUnits="userSpaceOnUse">
            <stop offset="0.39" stop-color="#e6e6e6" />
            <stop offset="1" stop-color="#0d71ba" stop-opacity="0.8" />
        </linearGradient>
        <clipPath id="clip-path" transform="translate(-260.1 -173.6)">
            <rect class="cls-1" x="298.13" y="303.44" width="244.07" height="244.07" rx="12" ry="12" />
        </clipPath>
        <linearGradient id="linear-gradient-2" x1="389.19" y1="405.02" x2="495.51" y2="405.02" gradientUnits="userSpaceOnUse">
            <stop offset="0" stop-color="#6fccdd" />
            <stop offset="1" stop-color="#e6e6e6" />
        </linearGradient>
        <linearGradient id="linear-gradient-3" x1="408.81" y1="392.94" x2="421.88" y2="392.94" xlink:href="#linear-gradient-2" />
        <linearGradient id="linear-gradient-4" x1="400.68" y1="390.19" x2="410.34" y2="390.19" xlink:href="#linear-gradient-2" />
        <linearGradient id="linear-gradient-5" x1="406.76" y1="386.2" x2="416.41" y2="386.2" xlink:href="#linear-gradient-2" />
        <linearGradient id="linear-gradient-6" x1="250.7" y1="429.57" x2="390.19" y2="429.57" gradientTransform="matrix(-1, 0, 0, 1, 794.81, 0)" xlink:href="#linear-gradient-2" />
        <linearGradient id="linear-gradient-7" x1="267.07" y1="475.42" x2="450.88" y2="475.42" xlink:href="#linear-gradient-2" />
        <linearGradient id="linear-gradient-8" x1="59.34" y1="444.65" x2="189.27" y2="444.65" gradientTransform="matrix(-1, 0, 0, 1, 542.21, 0)" xlink:href="#linear-gradient-2" />
        <linearGradient id="linear-gradient-9" x1="145.32" y1="411.13" x2="275.26" y2="411.13" gradientTransform="matrix(-1, 0, 0, 1, 542.21, 0)" xlink:href="#linear-gradient-2" />
        <clipPath id="clip-path-2" transform="translate(-260.1 -173.6)">
            <rect class="cls-1" x="374.04" y="302.44" width="88.63" height="70.52" />
        </clipPath>
        <clipPath id="clip-path-3" transform="translate(-260.1 -173.6)">
            <rect class="cls-1" x="297.31" y="303.53" width="244.07" height="244.07" rx="12" ry="12" />
        </clipPath>
        <linearGradient id="linear-gradient-10" x1="250.57" y1="507.44" x2="424.43" y2="507.44" gradientTransform="translate(-70.45 70.16) rotate(-9.56)" xlink:href="#linear-gradient-2" />
        <linearGradient id="linear-gradient-11" x1="238.59" y1="507.63" x2="474" y2="507.63" gradientTransform="matrix(-1, -0.06, -0.06, 1, 823.09, 22.39)" xlink:href="#linear-gradient-2" />
        <linearGradient id="linear-gradient-12" x1="348.6" y1="449.88" x2="512.92" y2="449.88" gradientTransform="matrix(-1, 0, 0, 1, 798.7, 0)" xlink:href="#linear-gradient-2" />
        <linearGradient id="linear-gradient-13" x1="262.38" y1="467.65" x2="412.71" y2="467.65" gradientTransform="matrix(-1, 0, 0, 1, 796.47, 0)" xlink:href="#linear-gradient-2" />
        <linearGradient id="linear-gradient-14" x1="118.94" y1="362.52" x2="276.3" y2="362.52" gradientTransform="matrix(-0.99, -0.17, -0.17, 0.99, 611.4, 70.16)" xlink:href="#linear-gradient-2" />
        <linearGradient id="linear-gradient-15" x1="249.29" y1="323.44" x2="388.78" y2="323.44" gradientTransform="translate(794.81 655.05) rotate(180)" xlink:href="#linear-gradient-2" />
        <linearGradient id="linear-gradient-16" x1="306.33" y1="350.45" x2="480.2" y2="350.45" gradientTransform="translate(-70.45 70.16) rotate(-9.56)" xlink:href="#linear-gradient-2" />
        <linearGradient id="linear-gradient-17" x1="382.53" y1="395.12" x2="568.59" y2="395.12" xlink:href="#linear-gradient-2" />
        <linearGradient id="linear-gradient-18" x1="291.56" y1="333.91" x2="454.47" y2="333.91" xlink:href="#linear-gradient-2" />
        <linearGradient id="linear-gradient-19" x1="240.1" y1="357.85" x2="390.43" y2="357.85" gradientTransform="matrix(-1, 0, 0, 1, 796.47, 0)" xlink:href="#linear-gradient-2" />
    </defs>
    <title>plantv4</title>
    <g id="mist">
        <rect class="cls-2" x="37.02" y="129.84" width="244.07" height="244.07" rx="12" ry="12" />
        <g class="cls-3">
            <path class="cls-4" d="M495.26,411.24c-1.1-5.23-5-7.63-9.11-10.21-.32-4.87-2-9.07-7-12.12a37.4,37.4,0,0,0-10.2-4,25.58,25.58,0,0,0-4.53-.71,10.2,10.2,0,0,0-2.92,0q.81-.76-.42-1.23c-5.23-3.6-10.21-7.09-17.21-5.1a13.94,13.94,0,0,0-6.91,4.6,29.1,29.1,0,0,0-2.62,3.69l-1,1.71c-3.7-1.47-7.5-2.33-11.76-1.1-4.94,1.44-7.59,5.11-10,9-1.24,2-1.71,3.55-4.42,3.36-2.53-.18-4.39-2-7.2-1.83-6.16.4-6.51,4.44-8.18,8.48-6.79,7,1,17.82,10.08,20.7,7.23,2.29,15.72,2.52,23.3,3a215.42,215.42,0,0,0,24.24.29c7.57-.34,13.61,0,20.75,2.3,6.65,2.16,11.7-.58,16.8-4.45C492.24,423.56,496.65,417.87,495.26,411.24Z" transform="translate(-260.1 -173.6)" />
            <path class="cls-5" d="M415.34,387.94c-8.71,0-8.72,10,0,10S424.07,387.94,415.34,387.94Z" transform="translate(-260.1 -173.6)" />
            <path class="cls-6" d="M405.51,385.19c-6.44,0-6.45,10,0,10S412,385.19,405.51,385.19Z" transform="translate(-260.1 -173.6)" />
            <path class="cls-7" d="M411.59,381.2c-6.44,0-6.45,10,0,10S418,381.2,411.59,381.2Z" transform="translate(-260.1 -173.6)" />
            <path class="cls-8" d="M407.1,443c5.68,5.06,11.63,6.83,18.9,7.23,1,0,5.18-.16,5.64-.27a11.74,11.74,0,0,0,1.92,1.95,10.42,10.42,0,0,0,7.75,2.41c6.46-.61,11.88-7.41,18.26-6.27,7.18,1.28,13.71,5.53,21.05,6.39,7.72.91,14.25-3.22,21.74-3.55,6.83-.31,13,4.07,20.06,3.39a30.92,30.92,0,0,0,18.08-8.84c3.77-3.71,4.27-7.54,3-11.92.54-3.53.19-6.88-2.59-9.59a9.15,9.15,0,0,0-5.84-2.53c-1.14-6.49-10.12-7-13.9-1.58a16.16,16.16,0,0,0-1.6-2.4,10.93,10.93,0,0,0-5.87-3.71,8.62,8.62,0,0,0-5.38.46,7.9,7.9,0,0,0-3.78,3.43,5.44,5.44,0,0,0-2.27-.34,16,16,0,0,1-3.72-3.75,41.38,41.38,0,0,0-4.92-5.15c-4.07-3.21-9.17-4.8-14.07-3-2.48.9-3.93,3.19-6.18,4.19-3.26,1.45-6.52-.31-9.87-.33a14.52,14.52,0,0,0-12.35,6c-2,2.88-2.17,4.9-5.23,6.56-2.33,1.27-6.17,1.83-8.71,2.49a169.88,169.88,0,0,1-24.57,4.42C406.64,429.32,401.36,437.87,407.1,443Z" transform="translate(-260.1 -173.6)" />
            <path class="cls-9" d="M447.05,479.83c-.11-1.23-.33-3.27-1.28-4.34a15.52,15.52,0,0,0-8.28-4.39,20,20,0,0,0-11.42.64c-3-2.67-7.29-4.44-11.89-5.76-6-5.1-18.24-6-25.34-.78a12.88,12.88,0,0,0-3.26,3.43l-1.86-.42c-1.64-1.07-5.45-1.12-7.18-2.18-1.05-.65-4.55-5.07-4.51-5.84.18-3.6-4.82-6.57-10.22-6.61-6.63-.05-12.87,1.34-17.44,4.55-.32.23-1,.75-1.82,1.38-.5-.1-1.09-.19-1.8-.27-.35-.1-.68-.23-1-.35a10.16,10.16,0,0,0-6.62-4.84c-.59-.15-2.89-.71-4.5-1a19.29,19.29,0,0,0-2.2-2.65,26.71,26.71,0,0,0-12.21-6c-7.85-1.58-13.21.9-15.76,4.61-3.46-.1-6.92-.09-10.48.08-7.94.39-12.37,5.25-8.85,9.9-3.58,2-6.62,4.24-8.32,6.71a6.61,6.61,0,0,0-.45,7.33c.52,1,4.47,3.87,5.94,5.42a5.23,5.23,0,0,0-.32.85,35.1,35.1,0,0,0-3.88,1c-6.71,2.12-6.64,9.27,0,11.41a38.71,38.71,0,0,0,7.15,1.57,13.38,13.38,0,0,0,2.93,2.32c5.48,3.3,14.16,4.3,22.11,3.8,6.05,4,17.83,5.39,27.17,3.54a55.39,55.39,0,0,0,12.27,3.28c4.89.82,9.91,1.23,14.25-.73a13,13,0,0,0,4.11-2.84,5.73,5.73,0,0,0,1.21-2.13c4.62.67,9.65,2.92,14.2,3.64,5.1.8,10.94,1.53,16,.3,4.39-1.07,6.94-2.65,8.31-4.57,1.1.08,2.12.13,2.71.15a17.41,17.41,0,0,0,6.59-.84c4.51-1.6,4.49-4.84,9.93-5.3,6.11-.51,11.56,1.46,17.79.16,6-1.25,9.21-4,11.49-7.62C451.89,483.94,450,481.46,447.05,479.83Zm-45.58-1.69c.24-.25.65-.65,1-1.09,2.26.53,5,.85,6,1.49a5.49,5.49,0,0,0,.58,2.1,61.43,61.43,0,0,1-10.28-.44A13.23,13.23,0,0,0,401.47,478.14Zm-69.58-7.05.12,0a5.78,5.78,0,0,0-.49.5c-.42.11-.84.19-1.27.27a7.83,7.83,0,0,0,.64-1.13Zm-17,13.73c3.38-2.2,4.92-4.78,5.2-7.47l.34-.07a2.82,2.82,0,0,0-.12,1.31c.56,2.7.35,4.82-3.46,6.46a14.9,14.9,0,0,0-1.33.68,13.54,13.54,0,0,0-1.45-.44C314.37,485.14,314.65,485,314.92,484.82Z" transform="translate(-260.1 -173.6)" />
            <path class="cls-10" d="M353.34,452.36c1.6,2.56,3.87,4.46,8.11,5.34,4.41.91,8.26-.47,12.58-.11,3.84.32,3.84,2.59,7,3.71a12.46,12.46,0,0,0,4.66.58c.41,0,1.14-.05,1.92-.1,1,1.34,2.76,2.45,5.87,3.19,3.6.86,7.73.36,11.33-.21,3.22-.5,6.78-2.08,10-2.54a4,4,0,0,0,.86,1.49,9,9,0,0,0,2.9,2c3.07,1.37,6.62,1.08,10.08.51a39.26,39.26,0,0,0,8.67-2.3c6.6,1.29,14.93.33,19.2-2.47,5.62.34,11.76-.35,15.64-2.67a9.68,9.68,0,0,0,2.07-1.62,27.38,27.38,0,0,0,5-1.1c4.7-1.49,4.74-6.5,0-8a25.23,25.23,0,0,0-2.75-.7,3.05,3.05,0,0,0-.22-.59c1-1.09,3.83-3.12,4.2-3.79a4.59,4.59,0,0,0-.32-5.13,17.09,17.09,0,0,0-5.88-4.7c2.49-3.26-.64-6.66-6.26-6.93-2.51-.12-5-.12-7.4-.05-1.81-2.6-5.6-4.34-11.15-3.23a19,19,0,0,0-8.63,4.2,14,14,0,0,0-1.55,1.85c-1.14.19-2.77.58-3.18.69a7.16,7.16,0,0,0-4.68,3.39c-.24.08-.47.17-.73.24-.49.06-.91.12-1.27.19-.55-.44-1.06-.81-1.28-1-3.23-2.25-7.64-3.22-12.33-3.19-3.82,0-7.35,2.11-7.23,4.63,0,.54-2.44,3.63-3.18,4.08-1.22.75-3.92.78-5.08,1.53l-1.32.3a9.19,9.19,0,0,0-2.3-2.41c-5-3.63-13.66-3-17.92.55a21.66,21.66,0,0,0-8.39,4,14.26,14.26,0,0,0-8.08-.45,11,11,0,0,0-5.85,3.07,5.74,5.74,0,0,0-.91,3C353.59,448.87,352.23,450.61,353.34,452.36ZM389.76,448a42.72,42.72,0,0,1-7.27.3,3.76,3.76,0,0,0,.41-1.46c.71-.45,2.63-.67,4.23-1.05.28.31.58.6.75.77A9.3,9.3,0,0,0,389.76,448Zm48-6.6a5.56,5.56,0,0,0,.45.79,9,9,0,0,1-.9-.19l-.35-.35.09,0Zm11.87,10.16a10.32,10.32,0,0,0-1,.31,9.14,9.14,0,0,0-.94-.47c-2.69-1.15-2.84-2.63-2.45-4.52a1.94,1.94,0,0,0-.08-.92l.24.05c.19,1.88,1.29,3.68,3.68,5.22C449.25,451.34,449.44,451.44,449.64,451.55Z" transform="translate(-260.1 -173.6)" />
            <path class="cls-11" d="M267.35,421.28a11.94,11.94,0,0,0,8.12,7c4.41,1.2,8.26-.62,12.58-.15,3.84.42,3.83,3.41,7,4.88a9.57,9.57,0,0,0,4.65.77c.42,0,1.15-.06,1.92-.14,1,1.77,2.77,3.23,5.88,4.21,3.6,1.13,7.72.46,11.33-.28,3.22-.66,6.77-2.73,10-3.34a5.71,5.71,0,0,0,.85,1.95,9.31,9.31,0,0,0,2.91,2.62c3.07,1.8,6.61,1.43,10.07.68a32.18,32.18,0,0,0,8.67-3c6.61,1.7,14.93.44,19.21-3.25,5.62.45,11.75-.46,15.63-3.51a10.6,10.6,0,0,0,2.07-2.13,22.19,22.19,0,0,0,5.06-1.45,5.67,5.67,0,0,0,0-10.51,23.25,23.25,0,0,0-2.75-.91,6,6,0,0,0-.22-.77c1-1.44,3.83-4.11,4.2-5a7.67,7.67,0,0,0-.32-6.75,19,19,0,0,0-5.88-6.17c2.49-4.29-.64-8.77-6.26-9.12a73.29,73.29,0,0,0-7.4-.07c-1.81-3.42-5.6-5.71-11.15-4.25a17.72,17.72,0,0,0-8.63,5.53,18.05,18.05,0,0,0-1.56,2.43c-1.14.25-2.76.77-3.17.9a7.78,7.78,0,0,0-4.69,4.47c-.23.11-.47.22-.72.32a11.65,11.65,0,0,0-1.27.24c-.55-.58-1.06-1.06-1.28-1.26-3.24-3-7.65-4.24-12.33-4.2-3.82,0-7.35,2.78-7.23,6.09,0,.71-2.44,4.78-3.19,5.38-1.22,1-3.92,1-5.07,2l-1.32.38a11.35,11.35,0,0,0-2.3-3.16c-5-4.78-13.66-4-17.92.73a20.11,20.11,0,0,0-8.4,5.3,11,11,0,0,0-8.07-.6,10.58,10.58,0,0,0-5.85,4.05,9,9,0,0,0-.91,4C267.6,416.69,266.25,419,267.35,421.28Zm36.43-5.76a33.15,33.15,0,0,1-7.27.41,6.21,6.21,0,0,0,.41-1.94c.7-.59,2.63-.87,4.23-1.37.28.41.57.78.74,1A10,10,0,0,0,303.78,415.52Zm48-8.68a8.18,8.18,0,0,0,.46,1,6.63,6.63,0,0,1-.9-.25,5.37,5.37,0,0,0-.35-.45l.09,0Zm11.88,13.37a7.13,7.13,0,0,0-1,.41,8.54,8.54,0,0,0-.94-.63c-2.7-1.51-2.84-3.46-2.45-5.94a3.32,3.32,0,0,0-.08-1.21l.23.06a9.89,9.89,0,0,0,3.68,6.88C363.26,419.94,363.46,420.07,363.66,420.21Z" transform="translate(-260.1 -173.6)" />
        </g>
    </g>
    <g id="root">
        <path class="cls-12" d="M416,541.05s.26-.74.59-2.15a47.19,47.19,0,0,0,1-6.21,59.14,59.14,0,0,0,0-9.73,67.71,67.71,0,0,0-2.14-12.43c-.26-1.13-.62-2.25-1-3.4s-.71-2.33-1.18-3.49l-1.36-3.58c-.48-1.21-1-2.43-1.46-3.69a142.86,142.86,0,0,1-5.16-16.11,106.4,106.4,0,0,1-3-17.82,90.35,90.35,0,0,1,.51-18.65,79.7,79.7,0,0,1,5-18.07c.58-1.38,1.09-2.86,1.63-4.27.26-.71.57-1.41.78-2.13l.66-2.12.66-2.11c.22-.71.38-1.43.57-2.14.35-1.42.77-2.82,1.05-4.24s.6-2.82.89-4.21.49-2.79.73-4.16.44-2.74.64-4.09.4-2.68.54-4c.65-5.27,1-10.29,1.3-14.92s.43-8.89.52-12.67.15-7.06.18-9.77c.07-5.43.15-8.53.15-8.53s.1,3.1.26,8.52c.06,2.72.15,6,.18,9.79s0,8.05-.12,12.71-.44,9.7-1,15A147.32,147.32,0,0,1,415,409.06a104.14,104.14,0,0,1-5.26,17.33A78,78,0,0,0,404.88,444a88.08,88.08,0,0,0-.57,18.27,109.76,109.76,0,0,0,2.77,17.56,161.25,161.25,0,0,0,4.82,16c.44,1.26.92,2.5,1.37,3.72s.86,2.44,1.28,3.63.78,2.4,1.12,3.57.68,2.32.92,3.48.55,2.25.73,3.36.36,2.19.54,3.24.22,2.1.33,3.1.12,2,.18,2.94a60,60,0,0,1-.39,9.81,40.15,40.15,0,0,1-1.24,6.19A21.17,21.17,0,0,1,416,541.05Z" transform="translate(-260.1 -173.6)" />
        <path class="cls-12" d="M369.26,413.6l.35-.39c.24-.25.59-.62,1.07-1s1.07-.93,1.79-1.47a21,21,0,0,1,2.53-1.62,17.21,17.21,0,0,1,1.55-.77l.83-.36.89-.31c.3-.1.6-.22.92-.3l1-.24a13.44,13.44,0,0,1,2-.34c.69-.1,1.41-.07,2.14-.11s1.46.11,2.19.18l2.18.48c.71.17,1.42.37,2.12.51,1.39.3,2.81.57,4.22.74s2.8.33,4.15.42c2.7.19,5.24.26,7.42.41,1.1.07,2.1.17,3,.31s1.65.28,2.28.43l.83.24.59.24.5.2-.52-.13c-.16,0-.36-.1-.61-.15l-.83-.13a21.06,21.06,0,0,0-2.27-.2c-.88,0-1.88,0-3,0-2.17,0-4.71.11-7.46,0-.68,0-1.38-.05-2.09-.11s-1.42-.1-2.14-.19c-1.44-.17-2.9-.41-4.36-.72-.73-.16-1.43-.37-2.14-.54l-2.06-.48c-.68-.07-1.37-.16-2-.21a19,19,0,0,0-2,0c-.65.08-1.3.1-1.92.24l-.93.18c-.3.06-.6.16-.89.24s-.58.15-.86.24l-.82.3c-.55.18-1.05.42-1.55.63-1,.44-1.84.91-2.6,1.34s-1.39.88-1.9,1.25-.92.67-1.18.89Z" transform="translate(-260.1 -173.6)" />
        <path class="cls-12" d="M354.94,446a3.65,3.65,0,0,1,.54-.17,14,14,0,0,1,1.56-.28c.67-.1,1.5-.18,2.45-.25s2-.14,3.18-.16,2.44-.05,3.78,0,2.75,0,4.21.1,3,.11,4.49.2l4.62.26c1.55.09,3.09.19,4.62.26s3,.15,4.46.18l2.13,0c.7,0,1.37,0,2,0,1.32,0,2.56-.11,3.71-.21a28.11,28.11,0,0,0,3.08-.52,15.34,15.34,0,0,0,2.3-.73l.82-.34.59-.3.49-.26-.45.32-.55.37-.79.44a15.73,15.73,0,0,1-2.26,1c-.45.18-.95.28-1.46.44s-1.08.23-1.66.36a36.77,36.77,0,0,1-3.78.44c-1.34.09-2.76.15-4.22.14-.74,0-1.48,0-2.23,0s-1.52,0-2.28-.06c-1.53-.05-3.09-.13-4.64-.21l-4.63-.3-4.47-.32-4.18-.27-3.74-.19c-2.32-.09-4.26-.15-5.61-.09-.68,0-1.21.06-1.57.1A3.19,3.19,0,0,0,354.94,446Z" transform="translate(-260.1 -173.6)" />
        <path class="cls-12" d="M408.85,425.54s.72.7,2,1.88,3.16,2.83,5.49,4.69c1.17.92,2.46,1.91,3.85,2.89.69.5,1.43,1,2.17,1.46s1.53,1,2.34,1.41c.41.23.81.47,1.22.68l1.27.64.32.16.31.13c.23.09.45.2.68.28.43.14.86.3,1.33.42a28.37,28.37,0,0,0,5.82.85c2,.13,4,.15,6,.18s4,.07,5.89.17a41.48,41.48,0,0,1,10.3,1.66,23,23,0,0,1,3.85,1.56c.55.27,1,.58,1.5.83l1.22.81a19.42,19.42,0,0,1,1.59,1.28l.53.48-.58-.42c-.19-.14-.42-.32-.7-.5l-1-.62-1.26-.7c-.48-.21-1-.48-1.54-.7a27.74,27.74,0,0,0-3.86-1.27,34.53,34.53,0,0,0-4.75-.85c-1.7-.2-3.52-.3-5.41-.37s-3.86,0-5.86-.05-4,0-6.09-.14a29.71,29.71,0,0,1-6.08-.94c-.49-.13-1-.31-1.47-.49-.24-.09-.45-.2-.68-.29l-.35-.16-.33-.18-1.29-.68c-.42-.23-.82-.49-1.23-.73-.83-.47-1.59-1-2.35-1.51s-1.47-1-2.15-1.58c-1.38-1-2.62-2.11-3.74-3.11s-2.12-1.95-3-2.82-1.6-1.64-2.19-2.28-1-1.17-1.35-1.52Z" transform="translate(-260.1 -173.6)" />
        <path class="cls-12" d="M451,497.49l-.12,0-.37,0c-.33,0-.82,0-1.44.06-1.23.05-3,.19-5.12.28s-4.59.19-7.25.21c-1.32,0-2.69,0-4.08,0s-2.81-.09-4.22-.17-2.82-.23-4.21-.39l-1.05-.14-1-.18a20.27,20.27,0,0,1-2-.44c-.66-.15-1.27-.38-1.89-.57s-1.18-.46-1.73-.73a19.2,19.2,0,0,1-3-1.71c-.87-.61-1.61-1.22-2.26-1.75a12.8,12.8,0,0,0-1.75-1.25,4,4,0,0,0-1.31-.42l-.51,0,.51-.05a3.75,3.75,0,0,1,1.42.26A41.5,41.5,0,0,1,414,493a22.66,22.66,0,0,0,3,1.44c.54.23,1.12.4,1.69.6s1.2.36,1.82.47a34,34,0,0,0,3.93.62c1.36.15,2.75.25,4.15.34s2.79.16,4.17.22l4.05.15L444,497c2.11.06,3.87.16,5.11.23.61,0,1.1.09,1.42.13a3.36,3.36,0,0,1,.38.07Z" transform="translate(-260.1 -173.6)" />
        <path class="cls-12" d="M407,482.34s.06.18.17.54a14.28,14.28,0,0,1,.34,1.58,18,18,0,0,1,.24,2.5c0,.49,0,1,0,1.55s-.09,1.11-.15,1.71-.21,1.2-.32,1.84-.36,1.27-.54,1.94-.5,1.31-.8,2l-.5,1a9.52,9.52,0,0,1-.56,1,21.21,21.21,0,0,1-2.87,3.71c-.58.56-1.13,1.17-1.74,1.68l-1.79,1.59L394.87,508c-1.2,1-2.4,2-3.52,3s-2.19,1.93-3.16,2.88c-.49.46-.91,1-1.36,1.41s-.81.94-1.15,1.4a11.9,11.9,0,0,0-.92,1.39l-.39.66c-.12.22-.19.45-.29.66s-.17.43-.26.63-.1.42-.15.61l-.14.57c0,.19,0,.36-.06.53,0,.34-.06.64-.06.91s0,.49,0,.67l0,.57s0-.2-.12-.56c0-.18-.08-.41-.13-.68a6.42,6.42,0,0,1,0-.92,5.23,5.23,0,0,1,0-.56c0-.19.05-.39.09-.6l.09-.65.21-.68a6.91,6.91,0,0,1,.24-.73c.1-.23.21-.48.33-.73a11.5,11.5,0,0,1,.85-1.51c.32-.52.71-1,1.09-1.54s.85-1,1.32-1.53c.94-1,2-2,3.09-3.06s2.26-2.05,3.45-3.07l3.61-3.11,1.81-1.57c.61-.51,1.12-1.06,1.68-1.59a23.08,23.08,0,0,0,2.81-3.45c.42-.59.71-1.24,1.08-1.83s.57-1.24.85-1.84.45-1.23.62-1.82.35-1.18.43-1.75.22-1.12.27-1.64a14,14,0,0,0,.14-1.5,18.39,18.39,0,0,0,0-2.47A16.33,16.33,0,0,0,407,482.34Z" transform="translate(-260.1 -173.6)" />
        <path class="cls-12" d="M413.79,505.3a18.49,18.49,0,0,1,1.68.81c.53.28,1.16.64,1.86,1.08l1.11.72,1.19.84,1.26,1,1.3,1.09,1.32,1.21c.45.42.87.87,1.32,1.32.86.93,1.75,1.9,2.55,2.95.43.51.8,1.06,1.2,1.6l.58.82.55.85,1.05,1.68c.36.55.69,1.12,1.06,1.64l1.1,1.53,1.17,1.45c.4.46.83.88,1.22,1.33s.84.81,1.24,1.21.85.72,1.25,1.07l1.23.93a27,27,0,0,0,2.31,1.44c.72.38,1.37.69,1.91.91a11.37,11.37,0,0,0,1.77.59l-.49-.05a12.38,12.38,0,0,1-1.37-.3,15.64,15.64,0,0,1-2.05-.7c-.4-.16-.79-.36-1.22-.55s-.85-.47-1.3-.71l-1.36-.87c-.44-.33-.91-.67-1.37-1s-.91-.77-1.36-1.19-.89-.87-1.33-1.33l-1.28-1.46q-.6-.78-1.2-1.59c-.38-.54-.72-1.1-1.09-1.65l-1.07-1.67-.52-.83-.56-.8c-.37-.53-.73-1.07-1.14-1.57-.78-1-1.58-2-2.39-2.94-.42-.45-.82-.9-1.22-1.34s-.83-.84-1.22-1.25l-1.2-1.14-1.16-1c-.75-.65-1.46-1.23-2.1-1.74s-1.21-.92-1.69-1.26l-1.13-.77Z" transform="translate(-260.1 -173.6)" />
        <path class="cls-12" d="M352.74,477.56s.87,0,2.4.19,3.71.41,6.31.83c1.31.2,2.71.43,4.2.71s3.05.57,4.66.92,3.28.69,5,1.09c.83.19,1.7.41,2.53.59s1.69.34,2.53.45a16.55,16.55,0,0,0,5,0,12.91,12.91,0,0,0,4.54-1.7c1.38-.83,2.64-1.82,3.88-2.74a20.37,20.37,0,0,1,3.72-2.31,12,12,0,0,1,3.54-1,15.11,15.11,0,0,1,2.79-.08,13.29,13.29,0,0,1,1.78.24l.62.11-.63,0c-.41,0-1,0-1.77,0a13.89,13.89,0,0,0-2.71.32,13.13,13.13,0,0,0-3.3,1.22,23,23,0,0,0-3.46,2.42,39.41,39.41,0,0,1-3.88,3,13.47,13.47,0,0,1-4.91,2,17.46,17.46,0,0,1-5.4.09,26.62,26.62,0,0,1-2.63-.5c-.88-.19-1.7-.41-2.55-.61l-4.92-1.21c-3.19-.77-6.18-1.46-8.74-2s-4.71-1.05-6.21-1.33S352.74,477.56,352.74,477.56Z" transform="translate(-260.1 -173.6)" />
        <path class="cls-12" d="M396,506.17a6.29,6.29,0,0,0-.85,1.06,9.09,9.09,0,0,0-.76,1.33c-.14.26-.24.55-.37.85s-.22.64-.33,1-.19.71-.26,1.09-.15.77-.19,1.18-.09.82-.1,1.26,0,.87,0,1.31l.09,1.37.18,1.4c.14.93.35,1.88.56,2.86s.36,2,.51,2.94.21,2,.26,2.89.05,1.84,0,2.7-.1,1.67-.19,2.41-.21,1.42-.34,2-.27,1.11-.39,1.52a11.39,11.39,0,0,1-.47,1.28s.1-.48.2-1.33c.05-.43.1-.95.14-1.54s.06-1.27.07-2c0-.37,0-.75,0-1.14s0-.8,0-1.22c0-.84-.12-1.72-.2-2.63s-.24-1.84-.37-2.79-.32-1.89-.54-2.87-.39-2-.53-3c0-.5-.1-1-.14-1.48s0-1,0-1.45.06-.94.1-1.39.14-.9.21-1.33.2-.84.31-1.23.27-.77.4-1.12.31-.68.47-1,.34-.59.52-.84a8.38,8.38,0,0,1,1-1.25,6.2,6.2,0,0,1,.77-.68A2.43,2.43,0,0,1,396,506.17Z" transform="translate(-260.1 -173.6)" />
        <path class="cls-12" d="M404.28,453a2.2,2.2,0,0,0-.06.5,4.71,4.71,0,0,0,.2,1.37,7.78,7.78,0,0,0,.92,1.9,14.21,14.21,0,0,0,1.74,2.08,13,13,0,0,0,1.14,1.06c.4.35.82.72,1.29,1.06s.91.7,1.42,1,1,.71,1.53,1,1.09.69,1.6,1l1.74.94c.59.3,1.18.52,1.77.79s1.24.43,1.85.65,1.27.34,1.91.51,1.29.24,1.93.33c1.3.15,2.59.27,3.86.31s2.51.11,3.69.21l1.71.2c.55.12,1.09.22,1.59.34l1.42.44,1.22.54a7.69,7.69,0,0,1,1,.57c.31.18.59.34.84.51.95.73,1.47,1.15,1.47,1.15l-1.6-.92-.89-.41a8.78,8.78,0,0,0-1.05-.43l-1.23-.38-1.39-.3c-.5-.08-1-.13-1.55-.2s-1.09-.07-1.67-.09c-1.16,0-2.38,0-3.67,0a36.32,36.32,0,0,1-4-.2c-.68-.09-1.36-.2-2-.32s-1.36-.3-2-.52-1.32-.42-2-.71-1.28-.56-1.88-.87l-1.71-1c-.6-.38-1.11-.74-1.65-1.09s-1-.75-1.53-1.12-.95-.76-1.4-1.15-.87-.78-1.26-1.18a13.21,13.21,0,0,1-1.09-1.19,13,13,0,0,1-1.61-2.36,8.59,8.59,0,0,1-.74-2.1,4.16,4.16,0,0,1,0-1.45A2.44,2.44,0,0,1,404.28,453Z" transform="translate(-260.1 -173.6)" />
        <path class="cls-12" d="M416.67,394l2,1.14,5.26,3.05,7.38,4.38,8.44,5,2.15,1.26a23.45,23.45,0,0,0,2.16,1.12,21.46,21.46,0,0,0,4.51,1.43c1.52.32,3.05.45,4.51.61a33.36,33.36,0,0,1,4.13.59,13.14,13.14,0,0,1,3.32,1.21,12.36,12.36,0,0,1,2.21,1.51,11.76,11.76,0,0,1,1.22,1.19l.4.45-.46-.39a6.77,6.77,0,0,0-.56-.45c-.22-.17-.48-.37-.78-.57a12.28,12.28,0,0,0-2.29-1.24,14.37,14.37,0,0,0-3.26-.89c-1.23-.18-2.6-.27-4.07-.34a39.3,39.3,0,0,1-4.65-.46,20.65,20.65,0,0,1-4.82-1.44,23.19,23.19,0,0,1-2.28-1.16l-2.16-1.3c-1.44-.88-2.88-1.74-4.27-2.63l-4.08-2.59c-2.64-1.71-5.08-3.33-7.16-4.74s-3.79-2.61-5-3.45Z" transform="translate(-260.1 -173.6)" />
    </g>
    <g id="plant">
        <path class="cls-13" d="M402,196.13s-29.32-35.32-67.28-17.52-60.23,14.49-68.81,12.87c5.2,17,53.86,46.49,95.69,28S402,196.13,402,196.13Z" transform="translate(-260.1 -173.6)" />
        <path class="cls-14" d="M402,196.13s-27.26-22.11-65.22-4.31-62.29,1.28-70.87-.34c5.2,17,53.86,46.49,95.69,28S402,196.13,402,196.13Z" transform="translate(-260.1 -173.6)" />
        <path class="cls-15" d="M419.16,245.59c-.43-3.3-3.77-13.82-4.66-17.83a113.33,113.33,0,0,0-3.59-12.82,69,69,0,0,0-6.35-13.61,38.89,38.89,0,0,0-11.19-12,31.68,31.68,0,0,0-3.78-2.13,28.14,28.14,0,0,0-4.11-1.53c-.7-.23-1.43-.36-2.14-.54s-1.45-.29-2.18-.36l-1.09-.12-1.09-.08-2.13-.14a86.08,86.08,0,0,0-17.06,1.14,147.05,147.05,0,0,0-16,3.65c-5.1,1.41-10,3-14.59,4.29A131.79,131.79,0,0,1,316,196.73a59.73,59.73,0,0,1-11.41,1.05,38.38,38.38,0,0,1-8.79-1.15,37.15,37.15,0,0,1-5.41-1.91l-1.84-.86,1.79,1c.58.33,1.34.63,2.23,1s1.94.73,3.12,1.15a39.37,39.37,0,0,0,8.88,1.52,55.12,55.12,0,0,0,11.66-.69,134.79,134.79,0,0,0,13.39-3c4.69-1.23,9.59-2.63,14.67-4a157.42,157.42,0,0,1,15.82-3.45,84.39,84.39,0,0,1,16.6-1.05l2.13.13,1,.07,1,.11c.68.06,1.34.22,2,.32s1.33.28,2,.49a27.21,27.21,0,0,1,3.81,1.41,29.51,29.51,0,0,1,3.52,2,33.26,33.26,0,0,1,6,5.17,46.07,46.07,0,0,1,4.72,6.17,72.37,72.37,0,0,1,6.48,13.18A109.93,109.93,0,0,1,413.37,228c1.93,7.93,4.32,16.24,4.88,21C418.53,251.3,419.6,248.88,419.16,245.59Z" transform="translate(-260.1 -173.6)" />
        <polygon class="cls-15" points="159.78 134.56 157.45 134.44 158.07 71.64 159.78 71.77 159.78 134.56" />
        <path class="cls-13" d="M444,196.08s33.12-31.78,68.82-9.8,58.22,21.19,66.92,20.55c-7.09,16.34-58.77,40.12-98.24,17S444,196.08,444,196.08Z" transform="translate(-260.1 -173.6)" />
        <path class="cls-14" d="M444,196.08c-2.38.08,19-20.9,64.33,4.35,33.45,18.62,62.71,7,71.41,6.4-7.09,16.34-58.77,40.12-98.24,17S444,196.08,444,196.08Z" transform="translate(-260.1 -173.6)" />
        <path class="cls-15" d="M418.34,249.22s-.09.61.16-.64.35-3.38.92-5.69.7-2.67,1.39-6.19c1-3.18,3.1-9.17,4.64-13a111.77,111.77,0,0,1,5.62-12.06,68.61,68.61,0,0,1,8.47-12.4,38.87,38.87,0,0,1,13-10.05,31.9,31.9,0,0,1,4.07-1.49,29.86,29.86,0,0,1,4.31-.85c.73-.11,1.46-.12,2.2-.18s1.47-.05,2.2,0l1.11.05,1.08.1,2.12.21a86.53,86.53,0,0,1,16.66,3.88,148.29,148.29,0,0,1,15.17,6.2c4.81,2.22,9.35,4.52,13.7,6.6a134,134,0,0,0,12.48,5.33A60.19,60.19,0,0,0,538.72,212a38.38,38.38,0,0,0,8.86.28,37.77,37.77,0,0,0,5.65-1l2-.56-1.93.66c-.62.24-1.43.41-2.36.66a32,32,0,0,1-3.27.62,38.72,38.72,0,0,1-9,.06,54.11,54.11,0,0,1-11.39-2.57A134.3,134.3,0,0,1,514.49,205c-4.43-2-9-4.16-13.83-6.32a161.79,161.79,0,0,0-15-6A84.28,84.28,0,0,0,469.4,189l-2.12-.22-1-.1-1-.05c-.68-.06-1.36,0-2.05,0s-1.36.07-2,.17a26.63,26.63,0,0,0-4,.76,29.11,29.11,0,0,0-3.8,1.37,33.88,33.88,0,0,0-6.79,4.12,46.11,46.11,0,0,0-5.65,5.32,72.83,72.83,0,0,0-8.54,12,111.16,111.16,0,0,0-5.86,11.8c-3.2,7.51-5.53,19.3-6.85,23.87-.66,2.28-.95-1.24-1.26,0S418.34,249.22,418.34,249.22Z" transform="translate(-260.1 -173.6)" />
    </g>
    <g id="pebbles">
        <circle class="cls-12" cx="156.24" cy="164.16" r="11" />
        <circle class="cls-12" cx="175.24" cy="172.16" r="11" />
        <circle class="cls-12" cx="175.24" cy="153.16" r="11" />
        <circle class="cls-12" cx="157.24" cy="142.16" r="11" />
        <circle class="cls-12" cx="136.24" cy="153.16" r="11" />
        <circle class="cls-12" cx="140.31" cy="171.16" r="11" />
        <circle class="cls-12" cx="157.24" cy="186.16" r="11" />
        <ellipse class="cls-12" cx="177.74" cy="188.24" rx="10.5" ry="9.87" />
        <circle class="cls-12" cx="136.82" cy="187.38" r="10.58" />
        <circle class="cls-12" cx="180.58" cy="142.93" r="11" />
        <circle class="cls-12" cx="138.29" cy="141.65" r="11" />
    </g>
    <g id="soil">
        <path class="cls-12" d="M421.52,300.59l5.44.06-1.29-2.26-1.56.78a1.51,1.51,0,0,0-1.06,2.56,6.31,6.31,0,0,0,4,1.66c2.29.11,8.7-3.18,9.85-.1a1.55,1.55,0,0,0,1.45,1.1l5.71-.14a1.5,1.5,0,0,0,0-3c-9.26-.85-18.52-1.84-27.83-2.1l-13.76-.35c-3.52-.1-6.59-.34-9.84,1.14-1.21.55-.81,2.44.36,2.74a75.21,75.21,0,0,0,29.72,1.71c1.91-.27,1.1-3.16-.79-2.89a71.6,71.6,0,0,1-28.14-1.71l.36,2.74c3.92-1.78,9.69-.7,14-.59,3.8.1,7.61.17,11.42.31,8.19.31,16.36,1.25,24.52,2v-3l-5.71.14,1.45,1.1a5,5,0,0,0-3.56-3.44c-3.52-1-8,3-11.07.56l-1.06,2.56a3.72,3.72,0,0,0,4.15-2.26,1.52,1.52,0,0,0-1.3-2.26l-5.44-.06c-1.93,0-1.93,3,0,3Z" transform="translate(-260.1 -173.6)" />
        <path class="cls-12" d="M413.55,298.82l-5.09-2a1.5,1.5,0,0,0-1.84,1.05,1.53,1.53,0,0,0,1,1.85l5.09,2a1.5,1.5,0,0,0,.8-2.89Z" transform="translate(-260.1 -173.6)" />
    </g>
    <g id="pod">
        <g class="cls-16">
            <g id="pod-2" data-name="pod">
                <path d="M414.56,303.15c-10.08,0-20.3-.16-30.5.12-2.56.08-7.17,1.44-7.26,2.49-.39,5.35-1.4,12.13,1.34,15.75a17.13,17.13,0,0,1,3.75,8.4c1.05,8.46,1.83,16.94,2.59,25.43.47,5.27.86,12.89.86,18.16,0,3.08,64.39,4.41,64.66,0,.8-13.81,2.77-32.86,4.35-46.6.2-1.67,2.06-3.13,3.09-4.73.64-1,1.6-2,1.64-3.06.18-5,.09-10.09.09-16.08H424.43m-40.32,20h14.63q1.26,24.13,2.47,47.58c-.64.53-.94,1-1.28,1-10.59,1.17-10.75,1.19-11.93-9.23C386.56,349.57,385.44,336.7,384.11,323Zm17.56-.14h14.42v48.8H404.18C403.36,355.59,402.53,339.56,401.67,322.9Zm18.19,48.52V322.69H434c-.73,16.17-1.44,32.17-2.18,48.73Zm27.15.28H434.63c.82-16.27,1.6-32.25,2.42-48.82h14.63C450.14,339.11,448.61,355.08,447,371.7Zm9-65V318.9H379.65V306.67ZM421.53,301c0,.5-.55,1-1.86,1.44" transform="translate(-260.1 -173.6)" />
                <path d="M379.65,318.9V306.68h76.4V318.9Z" transform="translate(-260.1 -173.6)" />
                <path class="cls-17" d="M421.53,301c0,.5-.55,1-1.86,1.44" transform="translate(-260.1 -173.6)" />
                <rect x="116.19" y="129.68" width="7.76" height="10.73" />
                <rect x="127.29" y="197.16" width="60.86" height="2.74" />
            </g>
        </g>
    </g>
    <g id="mist-2" data-name="mist">
        <g class="cls-18">
            <path class="cls-19" d="M428.14,508.31c-7.13.48-13.32-2.55-20.26-2.62-3.45,0-6.53,1.39-9.91,1.55a16,16,0,0,1-5.92-1.12,5.06,5.06,0,0,0-1.72-.63L389,505a50.41,50.41,0,0,0-19.26-3.07,91,91,0,0,1-9.77-.16c-.6,0-1.19-.12-1.79-.19a5.93,5.93,0,0,0-2.1-4.29c-3.26-2.7-7.8-4.51-12-2.3a8.44,8.44,0,0,0-2.28,1.75c-2.19-.06-4.38-.18-6.58-.43a75.56,75.56,0,0,1-7.81-1.24c-.58-.12-1.14-.28-1.71-.41,1.18-4.24-3.23-7.48-7.61-6-3.14,1-5.91,3.16-6.62,6.09a8.64,8.64,0,0,1-.92.1,8.78,8.78,0,0,0-4.37-4c-7.44-3.53-13.52,3.9-11.39,9.33A11.92,11.92,0,0,0,292,497.9c-6.45-3.74-17.66.79-15,8.07-5.89-.38-12,3.27-9.64,9.65a8.52,8.52,0,0,0,.94,1.83,10.93,10.93,0,0,0-4.94,1.48c-2.86,1.65-4.55,5.18-1.91,7.88a15.62,15.62,0,0,0,3.57,2.7c-.72,3.84,2.24,8.58,5.61,10.82,5.42,3.6,11.91,4.16,18.34,3.77a6,6,0,0,0,4.14,2.38c24.7,2,50.68,1.52,74.95-3.58,4.8-1,9.94-2.4,13.85-5.29,1.09-.8,3.41-2.72,3.67-4.23a20,20,0,0,0,2.47.46c4.15.72,8.33-.2,10.45-3.85a7.19,7.19,0,0,0,.92-2.84,13.1,13.1,0,0,1,4.29-.74c3,0,5.36-1.68,5.9-4,2.48.64,11.28.73,12.93.46a16.53,16.53,0,0,0,11.06-6.58C436.31,512.37,432.91,508,428.14,508.31ZM346,518.11c.22-.24.45-.47.68-.69.06.34.14.68.23,1l-.22.09C346.44,518.4,346.2,518.26,346,518.11Zm-62.09,9.24c.23-.21.44-.44.65-.66a5.52,5.52,0,0,0,.72.06h.24a9.76,9.76,0,0,0,1.41,1.08c-1.05-.13-2.1-.24-3.14-.38Zm21,4.92a25.29,25.29,0,0,0,12.41,1.42c-2.59,1.55-11.06,0-13.6-.45l-.34-.09A8,8,0,0,0,304.89,532.27Zm27,.09a9.11,9.11,0,0,0,.84.8l-.71.06c-.38,0-.78,0-1.16.06A9,9,0,0,0,331.88,532.36Zm27-4.52h-.39a5.47,5.47,0,0,0,.51-.45l.8.47C359.51,527.86,359.21,527.84,358.9,527.84Zm-38.41-24c.71.19,1.42.34,2.13.51a18.76,18.76,0,0,0-4.54,2,5.46,5.46,0,0,0-.85-2.83c.28-.12.56-.25.83-.39C318.87,503.45,319.69,503.67,320.49,503.88Zm41.85,8.21a4.91,4.91,0,0,1-3.25-.13C360.2,512,361.29,512.07,362.34,512.09Zm23.32,10.83a13.6,13.6,0,0,0-2.21,0,6.35,6.35,0,0,1,5.29-1.69,4.48,4.48,0,0,0-1.25,2C386.89,523.13,386.28,523,385.66,522.92Z" transform="translate(-260.1 -173.6)" />
            <path class="cls-20" d="M321.61,521.83A23.22,23.22,0,0,0,337.56,529c2.26.15,14.07-1.09,17.3-2.25,1.11,3,4.5,4.86,8.6,4.51a18.42,18.42,0,0,1,5.87.41,9.76,9.76,0,0,0,1.72,3.61c3.44,4.51,9.22,5.18,14.68,3.71a25.83,25.83,0,0,0,3.24-.91c.6,1.94,4,4.16,5.63,5.07,5.73,3.28,12.86,4.45,19.49,5.16,33.44,3.59,68.44.95,101.29-4.85a7.81,7.81,0,0,0,5.16-3.64c8.72-.32,17.34-1.88,24-7.29,4.15-3.35,7.35-9.94,5.74-14.88a20,20,0,0,0,4.35-4c3.1-3.87.25-8.28-3.87-10.08a15.5,15.5,0,0,0-6.88-1.31,11.56,11.56,0,0,0,1-2.51c2.15-8.66-6.7-12.66-14.56-11.42,2.34-9.87-13.47-14.38-21.51-8.65a15.09,15.09,0,0,0-3.43,3.31c1.95-7.38-7.44-16.34-16.85-10.77a11.22,11.22,0,0,0-5.21,5.8,10.53,10.53,0,0,1-1.26,0c-1.43-3.74-5.51-6.16-9.89-7.13-6.14-1.35-11.52,3.45-9.24,8.85-.74.26-1.47.53-2.22.77-3.37,1-6.81,1.9-10.29,2.62-2.91.59-5.84,1-8.78,1.39a11.77,11.77,0,0,0-3.34-2c-6-2.36-11.8.6-15.74,4.54a7.55,7.55,0,0,0-2.11,5.89c-.79.17-1.58.33-2.37.47A124.76,124.76,0,0,1,405,494.91a68.2,68.2,0,0,0-25.38,6.48l-1.67.8a6.76,6.76,0,0,0-2.21,1,21.27,21.27,0,0,1-7.77,2.22c-4.57.23-8.94-1.25-13.57-.76-9.31,1-17.13,5.73-26.8,6C321.13,510.89,317.29,517.05,321.61,521.83Zm117.13-8.12-.3-.09c.06-.46.1-.91.13-1.37.35.27.7.54,1,.82C439.33,513.3,439,513.51,438.74,513.71Zm86,3.67c-1.37.31-2.76.59-4.15.9a13.73,13.73,0,0,0,1.72-1.61l.32,0a7.12,7.12,0,0,0,1-.16c.32.26.63.53,1,.78Zm-25.37,10c-.15,0-.29.11-.44.15-3.33,1-14.46,4-18.2,2.33,6,.21,12.57-1.28,16.44-3.44A12,12,0,0,0,499.36,527.35ZM462.45,531c-.52,0-1.05.08-1.58.08h-1a10.94,10.94,0,0,0,1-1.16A10.86,10.86,0,0,0,462.45,531Zm-39.83-3.39,1-.72c.24.19.5.36.76.53l-.52,0C423.44,527.5,423,527.57,422.62,527.62Zm52-37.64,1.18.4a7,7,0,0,0-.67,3.82,26.73,26.73,0,0,0-6.43-2.08c.92-.31,1.85-.6,2.77-.93S473.6,490.42,474.64,490ZM421,506.69a6.67,6.67,0,0,1-4.34.58C418,507.11,419.49,506.92,421,506.69ZM384.68,525.1a6.16,6.16,0,0,0-2-2.49c2.87-.77,5.17.18,7.39,1.54a19.17,19.17,0,0,0-3,.28C386.27,524.62,385.47,524.85,384.68,525.1Z" transform="translate(-260.1 -173.6)" />
            <path class="cls-21" d="M299,469.76c7.89,3.41,15.69,5.83,26,3.93,11-2,20.37-2.33,32.07-2,12.52.32,25,.23,37.46-.25,11.72-.45,24.84-.66,36-2.68,14-2.53,26.07-12.09,15.58-18.23-2.58-3.56-3.13-7.12-12.64-7.47-4.34-.16-7.23,1.45-11.13,1.61-4.2.17-4.92-1.21-6.84-3-3.76-3.42-7.86-6.65-15.5-7.91a45.8,45.8,0,0,0-18.17,1l-1.57-1.5a31.45,31.45,0,0,0-4-3.25,26.31,26.31,0,0,0-10.68-4.06c-10.83-1.75-18.52,1.32-26.6,4.5-1.27.27-1.48.63-.65,1.08a27.29,27.29,0,0,0-4.52,0,66.93,66.93,0,0,0-7,.62A87.84,87.84,0,0,0,311,435.69c-7.69,2.69-10.28,6.38-10.77,10.68-6.42,2.27-12.38,4.39-14.07,9C284,461.21,290.84,466.21,299,469.76Z" transform="translate(-260.1 -173.6)" />
            <path class="cls-22" d="M384.21,476.32c1.87,2.88,4.49,5,9.4,6,5.1,1,9.55-.53,14.55-.12,4.44.36,4.44,2.91,8.12,4.17a14.83,14.83,0,0,0,5.39.65c.48,0,1.32,0,2.22-.11,1.12,1.51,3.2,2.75,6.8,3.59,4.16,1,8.93.4,13.1-.23,3.73-.57,7.84-2.34,11.62-2.86a4.48,4.48,0,0,0,1,1.67,10.55,10.55,0,0,0,3.36,2.24c3.55,1.53,7.65,1.21,11.66.57a46.65,46.65,0,0,0,10-2.58c7.64,1.45,17.27.37,22.22-2.79,6.5.39,13.6-.39,18.09-3a11.4,11.4,0,0,0,2.39-1.82,32.67,32.67,0,0,0,5.85-1.24c5.43-1.68,5.48-7.31,0-9a30.63,30.63,0,0,0-3.18-.78,3.56,3.56,0,0,0-.25-.66c1.2-1.23,4.43-3.51,4.85-4.27a5,5,0,0,0-.37-5.77,19.61,19.61,0,0,0-6.8-5.28c2.88-3.66-.74-7.48-7.24-7.79-2.91-.13-5.74-.14-8.57-.06-2.08-2.92-6.47-4.87-12.89-3.62a22.1,22.1,0,0,0-10,4.71,16.37,16.37,0,0,0-1.8,2.09c-1.32.21-3.2.65-3.67.77a8.28,8.28,0,0,0-5.42,3.81c-.28.09-.55.19-.84.27q-.85.09-1.47.21c-.64-.49-1.22-.9-1.48-1.08-3.74-2.52-8.84-3.62-14.27-3.58-4.41,0-8.5,2.37-8.36,5.2,0,.61-2.82,4.09-3.69,4.6-1.41.83-4.53.87-5.87,1.71l-1.52.33a10.52,10.52,0,0,0-2.67-2.7c-5.8-4.09-15.8-3.39-20.73.62-3.76,1-7.26,2.43-9.71,4.53a17,17,0,0,0-9.35-.51A12.88,12.88,0,0,0,388,467.7a6.23,6.23,0,0,0-1.06,3.42C384.51,472.4,382.94,474.35,384.21,476.32Zm42.15-4.92a51,51,0,0,1-8.41.35,4.17,4.17,0,0,0,.47-1.65c.82-.51,3.05-.75,4.9-1.17.32.34.66.66.86.85A10.37,10.37,0,0,0,426.36,471.4ZM481.9,464a7.26,7.26,0,0,0,.52.9c-.35-.07-.7-.13-1-.22-.13-.14-.27-.26-.41-.39l.1,0Zm13.74,11.43c-.42.1-.81.22-1.19.35a8.51,8.51,0,0,0-1.09-.53c-3.12-1.3-3.29-3-2.84-5.09a1.93,1.93,0,0,0-.09-1l.27.06c.23,2.11,1.5,4.14,4.26,5.87C495.18,475.18,495.41,475.29,495.64,475.41Z" transform="translate(-260.1 -173.6)" />
            <path class="cls-23" d="M277.71,396.35a14.79,14.79,0,0,0,10,6.47c1.49.26,9.45.18,11.69-.46a5.23,5.23,0,0,0,5.34,3.95,11,11,0,0,1,3.87.72,7.57,7.57,0,0,0,.84,2.79c1.91,3.58,5.69,4.49,9.45,3.78a15.37,15.37,0,0,0,2.23-.45c.23,1.49,2.33,3.37,3.32,4.16,3.53,2.83,8.17,4.2,12.52,5.19,21.94,5,45.43,5.52,67.76,3.52a5.3,5.3,0,0,0,3.74-2.33c5.82.37,11.68-.18,16.59-3.72,3-2.19,5.72-6.85,5.07-10.62a14.12,14.12,0,0,0,3.22-2.66c2.39-2.64.87-6.12-1.72-7.74a9.39,9.39,0,0,0-4.46-1.45,9.05,9.05,0,0,0,.84-1.8c2.16-6.26-3.38-9.85-8.71-9.48,2.38-7.15-7.75-11.6-13.58-7.92a11,11,0,0,0-2.56,2.21c1.92-5.33-3.57-12.63-10.3-9.16a8.2,8.2,0,0,0-3.95,3.93,7.42,7.42,0,0,1-.84-.1c-.64-2.88-3.14-5-6-6-4-1.43-8,1.74-6.89,5.91-.52.13-1,.29-1.54.41a67.64,67.64,0,0,1-7.06,1.22c-2,.24-4,.36-6,.41a7.62,7.62,0,0,0-2.06-1.71c-3.79-2.17-7.89-.39-10.84,2.25a6.05,6.05,0,0,0-1.9,4.22l-1.61.18a76.55,76.55,0,0,1-8.83.17,42.23,42.23,0,0,0-17.42,3l-1.18.48a4.4,4.4,0,0,0-1.56.62,13.35,13.35,0,0,1-5.35,1.1c-3.06-.15-5.84-1.56-9-1.52-6.27.07-11.87,3-18.33,2.57C278.31,388.21,275.23,392.51,277.71,396.35Zm78.57,2.21-.2-.09c.08-.33.15-.67.21-1,.21.22.41.45.62.68Zm56.87,8.76-2.84.37a10.58,10.58,0,0,0,1.28-1.06h.21a3.43,3.43,0,0,0,.65-.05c.19.22.38.44.59.64A.52.52,0,0,0,413.15,407.32Zm-17.71,5.61-.31.08c-2.29.5-9.95,2-12.29.44a21.14,21.14,0,0,0,11.22-1.39A7.3,7.3,0,0,0,395.44,412.93Zm-24.85.12c-.36,0-.71,0-1.06-.05l-.64-.07a7,7,0,0,0,.76-.78A7.26,7.26,0,0,0,370.59,413.05Zm-26.2-5.32.72-.46c.15.16.3.31.46.45h-.34Zm37.75-24.24.75.39a5.67,5.67,0,0,0-.76,2.78,16.11,16.11,0,0,0-4.11-2c.65-.17,1.29-.32,1.93-.5S381.41,383.75,382.14,383.49Zm-37.09,8.62a4.15,4.15,0,0,1-2.94.13C343.06,392.21,344.05,392.17,345.05,392.11ZM319.37,403.2a4.45,4.45,0,0,0-1.13-2c2-.37,3.42.49,4.79,1.66a11.13,11.13,0,0,0-2,0C320.47,403,319.92,403.08,319.37,403.2Z" transform="translate(-260.1 -173.6)" />
            <path class="cls-24" d="M408.51,318.2c5.68-5.06,11.63-6.83,18.9-7.23,1-.05,5.18.16,5.64.27a11.74,11.74,0,0,1,1.92-1.95,10.42,10.42,0,0,1,7.75-2.41c6.46.61,11.88,7.4,18.26,6.27,7.18-1.29,13.71-5.53,21-6.39,7.73-.91,14.25,3.22,21.75,3.55,6.83.31,13-4.07,20.06-3.39a30.89,30.89,0,0,1,18.08,8.84c3.77,3.71,4.27,7.53,3,11.92.54,3.53.19,6.87-2.59,9.59a9.09,9.09,0,0,1-5.84,2.52c-1.15,6.5-10.12,7-13.9,1.58a16.25,16.25,0,0,1-1.6,2.41,11.06,11.06,0,0,1-5.88,3.71,8.67,8.67,0,0,1-5.37-.46,7.87,7.87,0,0,1-3.78-3.44,5.39,5.39,0,0,1-2.27.35,15.59,15.59,0,0,0-3.72,3.75,41.38,41.38,0,0,1-4.92,5.15c-4.07,3.21-9.17,4.8-14.07,3-2.48-.9-3.93-3.19-6.18-4.19-3.26-1.45-6.52.31-9.87.33a14.49,14.49,0,0,1-12.35-6c-2-2.88-2.17-4.89-5.23-6.55-2.33-1.27-6.17-1.83-8.71-2.49A170.15,170.15,0,0,0,414,332.5C408,331.87,402.77,323.32,408.51,318.2Z" transform="translate(-260.1 -173.6)" />
            <path class="cls-25" d="M457.06,344.24c-7.13.47-13.33-2.56-20.26-2.63-3.46,0-6.54,1.4-9.92,1.55A15.79,15.79,0,0,1,421,342a5.09,5.09,0,0,0-1.72-.62c-.44-.17-.87-.34-1.3-.49a50.27,50.27,0,0,0-19.27-3.07,90.78,90.78,0,0,1-9.76-.17c-.6-.05-1.2-.11-1.79-.19a6,6,0,0,0-2.1-4.29c-3.26-2.69-7.8-4.5-12-2.29a8.46,8.46,0,0,0-2.28,1.74c-2.19-.06-4.39-.18-6.59-.42-2.62-.29-5.23-.69-7.81-1.24-.57-.12-1.13-.28-1.7-.42,1.17-4.24-3.23-7.47-7.62-6-3.13,1-5.9,3.16-6.61,6.08a8.9,8.9,0,0,1-.92.11,8.75,8.75,0,0,0-4.37-4c-7.44-3.53-13.52,3.9-11.39,9.33a11.71,11.71,0,0,0-2.84-2.25c-6.44-3.75-17.65.79-15,8.06-5.9-.37-12,3.28-9.64,9.65a9,9,0,0,0,.93,1.83,11.19,11.19,0,0,0-4.93,1.48c-2.87,1.65-4.55,5.19-1.91,7.88a15.41,15.41,0,0,0,3.57,2.7c-.72,3.84,2.24,8.59,5.6,10.82,5.43,3.6,11.91,4.16,18.35,3.78a6,6,0,0,0,4.14,2.38c24.7,2,50.68,1.51,74.94-3.59,4.81-1,9.95-2.4,13.86-5.28,1.08-.81,3.4-2.72,3.66-4.23a18.65,18.65,0,0,0,2.47.45c4.16.72,8.34-.2,10.45-3.85a7.21,7.21,0,0,0,.93-2.84,13,13,0,0,1,4.28-.73c3,0,5.36-1.69,5.91-4,2.48.65,11.28.74,12.93.47a16.57,16.57,0,0,0,11.06-6.58C465.22,348.29,461.82,343.92,457.06,344.24ZM374.89,354l.69-.7c.06.34.14.68.23,1l-.22.09C375.35,354.32,375.12,354.18,374.89,354Zm-62.08,9.23c.23-.21.43-.43.65-.65a5.43,5.43,0,0,0,.72.05h.23a11.08,11.08,0,0,0,1.41,1.09c-1-.13-2.09-.24-3.13-.38Zm21,4.93a25.24,25.24,0,0,0,12.4,1.41c-2.58,1.56-11.06.06-13.6-.45l-.33-.08A9.64,9.64,0,0,0,333.81,368.2Zm27,.08a8,8,0,0,0,.85.8l-.71.07c-.39,0-.78,0-1.17.05A6.91,6.91,0,0,0,360.79,368.28Zm27-4.52-.38,0c.18-.15.35-.3.51-.46l.8.47Zm-38.4-23.95c.7.18,1.42.33,2.13.5a18.61,18.61,0,0,0-4.54,2,5.5,5.5,0,0,0-.85-2.83l.83-.39C347.79,339.37,348.61,339.6,349.41,339.81ZM391.26,348a4.91,4.91,0,0,1-3.25-.13C389.12,348,390.2,348,391.26,348Zm23.32,10.83a13.71,13.71,0,0,0-2.22,0,6.41,6.41,0,0,1,5.3-1.69,4.45,4.45,0,0,0-1.25,2C415.8,359.05,415.19,358.93,414.58,358.85Z" transform="translate(-260.1 -173.6)" />
            <g class="cls-26">
                <path class="cls-27" d="M564.44,406.72q-13.77-2.78-27.72-4.4c1.89-2.37.91-5.89-1.22-7.78,5.15-5.19,10.82-11.47,9-18.12-2.37-8.8-11.73-9.83-19.34-10.21-22.64-1.14-45.28-2.2-67.93-3.3-11.17-.54-22.34-1.19-33.52-1.57-9.69-.33-21.62-1.71-30.94,1.52-6.95,2.42-11.93,10.95-6.88,17.54a9.85,9.85,0,0,0,.75.83,8.56,8.56,0,0,0-4,6.08,9.25,9.25,0,0,0,5.57,10.3,8.89,8.89,0,0,0,4.72,3.93c3.83,1.43,8.39,1.64,12.4,2.3,3.62.6,7.26,1.15,10.89,1.67a7.79,7.79,0,0,0,1,.94c6.17,5.18,16.88,5,24.58,3.9a98.49,98.49,0,0,0,33.43,6.41,18.24,18.24,0,0,0,2.45,1.36,5.42,5.42,0,0,0,1.58,4.78c5.37,5.52,12.79,7.2,20.29,6.38,8.4-.93,16.05-5.56,24.5-5.93,8.93-.39,17.49,3.37,26.48,2.27,7.19-.88,13.58-4.13,17.31-10.51C569.61,412.11,568.1,407.46,564.44,406.72ZM396.25,373.6c-.84-.6.83-.31,2-.41l.83-.06a4.4,4.4,0,0,0-.33,1.09A6.05,6.05,0,0,1,396.25,373.6Zm3.1,18a6.43,6.43,0,0,0-.36-1.37c1.67-.25,3.32-.56,5-.91a8.35,8.35,0,0,0,.28,3l.06.16A36.35,36.35,0,0,1,399.35,391.56Zm40.57-15.45a12.28,12.28,0,0,0-.41,1.84,5.56,5.56,0,0,0-.4,1.63c-.37-.12-.75-.22-1.12-.32a5.43,5.43,0,0,0-1.68-1.51,29.4,29.4,0,0,0-13.22-3.93l-.26-.05a5.07,5.07,0,0,0-.46-1c6.39.18,12.79.45,19.18.77A5.82,5.82,0,0,0,439.92,376.11ZM462.41,394a11.31,11.31,0,0,0-1.05.77,4.46,4.46,0,0,0-1.15,1.43,11.16,11.16,0,0,0-1-1.15A24.16,24.16,0,0,0,462.41,394Zm.76,10.29c-1.35-.21-2.68-.45-4-.72a6.52,6.52,0,0,0,1.39-1.86,5.54,5.54,0,0,0,2,2c.25.14.51.25.76.37A1.62,1.62,0,0,0,463.17,404.33Zm6.22-12.77a15.2,15.2,0,0,0-3.85.86,14.41,14.41,0,0,0,1.44-1,10.29,10.29,0,0,0,1.79-1.83l1.76.38A5.34,5.34,0,0,0,469.39,391.56Zm43.49-1.71a5.9,5.9,0,0,0-1.3,4,5.07,5.07,0,0,0-.75-.48A15.68,15.68,0,0,0,506.6,392,6.46,6.46,0,0,0,511,387.2a28.43,28.43,0,0,0,3.05.22l.48.27Zm-27.78-11a16.34,16.34,0,0,0-5.88.89c-.54-.06-1.07-.14-1.6-.21a5.67,5.67,0,0,0-.73-4.22l10.64.52a6.11,6.11,0,0,0-.56,2.58l-.56.06A5.14,5.14,0,0,0,485.1,378.82ZM521,412.2c-5.64.85-13,4.27-19.78,5.57a5.33,5.33,0,0,0-5.49-5.23,5.27,5.27,0,0,0-5.39,4.45l-.14-.07a9.21,9.21,0,0,0-.35-1.13,5.29,5.29,0,0,0-.66-4.92,4,4,0,0,0,.12-.41q.12-.68.18-1.35a52.56,52.56,0,0,1,5.39-.73l4.12-.58a6.26,6.26,0,0,0,.61.21,12.93,12.93,0,0,0,1.88.41c.35,5.21,7.91,9,10.5,3.1a12.38,12.38,0,0,0,.53-1.39l0,0a2.13,2.13,0,0,0,0-.25,10.68,10.68,0,0,0,.2-6.22,5.71,5.71,0,0,0,.3-3,6.51,6.51,0,0,0,.51-2.41c2,2,5.13,2.56,7.38-.31l.43-.56a6,6,0,0,0,1.08,1.8c-1.2.85-2.41,1.69-3.64,2.5A5.73,5.73,0,0,0,521,412.2Zm11.45-31.84a6.18,6.18,0,0,0-1-2.15C533.46,378.7,533.37,379.27,532.42,380.36Z" transform="translate(-260.1 -173.6)" />
            </g>
            <path class="cls-28" d="M450.85,344.08q-12.06-2.44-24.28-3.87c1.66-2.06.8-5.15-1.06-6.81,4.5-4.54,9.47-10,7.91-15.86-2.07-7.7-10.27-8.6-16.93-8.94q-29.73-1.5-59.48-2.89c-9.78-.47-19.56-1-29.35-1.37-8.49-.29-18.93-1.5-27.09,1.33-6.09,2.11-10.45,9.58-6,15.35a9.4,9.4,0,0,0,.66.74,7.44,7.44,0,0,0-3.49,5.32,8.07,8.07,0,0,0,4.87,9,7.85,7.85,0,0,0,4.14,3.45c3.35,1.25,7.34,1.43,10.85,2,3.18.53,6.36,1,9.54,1.46a6.6,6.6,0,0,0,.84.83c5.4,4.53,14.78,4.35,21.52,3.41a86.74,86.74,0,0,0,29.27,5.62,16,16,0,0,0,2.15,1.18,4.75,4.75,0,0,0,1.38,4.19c4.7,4.83,11.2,6.3,17.76,5.58,7.36-.81,14.06-4.86,21.46-5.19,7.82-.34,15.31,3,23.19,2,6.29-.77,11.88-3.62,15.15-9.2C455.37,348.79,454.05,344.72,450.85,344.08Zm-147.27-29c-.74-.52.73-.27,1.77-.36l.73,0a4.23,4.23,0,0,0-.29,1A5.26,5.26,0,0,1,303.58,315.07Zm2.72,15.72a6,6,0,0,0-.32-1.19c1.46-.22,2.9-.49,4.34-.79a7.15,7.15,0,0,0,.25,2.58.78.78,0,0,0,.05.14A29.26,29.26,0,0,1,306.3,330.79Zm35.51-13.52a10.15,10.15,0,0,0-.35,1.61,4.91,4.91,0,0,0-.35,1.43c-.33-.11-.66-.2-1-.28a4.71,4.71,0,0,0-1.48-1.32,25.8,25.8,0,0,0-11.57-3.45l-.23,0a4.34,4.34,0,0,0-.4-.91c5.6.15,11.19.39,16.79.67A5.3,5.3,0,0,0,341.81,317.27Zm19.7,15.7a10.31,10.31,0,0,0-.92.67,4,4,0,0,0-1,1.25,10.49,10.49,0,0,0-.86-1A21.69,21.69,0,0,0,361.51,333Zm.66,9c-1.17-.18-2.34-.4-3.51-.63a5.76,5.76,0,0,0,1.22-1.63,4.79,4.79,0,0,0,1.72,1.77c.22.13.44.22.66.33Zm5.45-11.18a13.14,13.14,0,0,0-3.37.75,13.65,13.65,0,0,0,1.26-.89,9.11,9.11,0,0,0,1.57-1.6c.51.11,1,.23,1.54.33A4.62,4.62,0,0,0,367.62,330.8Zm38.08-1.5a5.2,5.2,0,0,0-1.14,3.55,4.26,4.26,0,0,0-.65-.42,13.82,13.82,0,0,0-3.71-1.22,5.67,5.67,0,0,0,3.89-4.23,26.62,26.62,0,0,0,2.67.19l.42.24Zm-24.33-9.66a14.12,14.12,0,0,0-5.15.79l-1.39-.19a5,5,0,0,0-.64-3.69l9.31.45a5.4,5.4,0,0,0-.49,2.26l-.49.05A4.41,4.41,0,0,0,381.37,319.64Zm31.41,29.23c-4.93.75-11.35,3.74-17.31,4.88a4.69,4.69,0,0,0-4.82-4.58,4.6,4.6,0,0,0-4.71,3.89l-.13-.06a7.53,7.53,0,0,0-.31-1,4.61,4.61,0,0,0-.57-4.3c0-.12.08-.24.11-.36.07-.4.12-.79.15-1.19a45.3,45.3,0,0,1,4.72-.63c1.2-.18,2.41-.35,3.61-.51l.53.19a12.13,12.13,0,0,0,1.65.35c.3,4.56,6.93,7.89,9.2,2.71.17-.4.33-.81.46-1.21l0,0a1.81,1.81,0,0,0,0-.23,9.37,9.37,0,0,0,.17-5.44,5,5,0,0,0,.27-2.66,5.85,5.85,0,0,0,.44-2.11c1.76,1.75,4.49,2.25,6.46-.27l.38-.49a5.46,5.46,0,0,0,.94,1.58c-1,.74-2.1,1.48-3.18,2.19A5,5,0,0,0,412.78,348.87Zm10-27.88a5.62,5.62,0,0,0-.91-1.88C423.72,319.53,423.64,320,422.81,321Z" transform="translate(-260.1 -173.6)" />
            <path class="cls-29" d="M406.49,366.53c1.87,2.87,4.48,5,9.4,6,5.1,1,9.55-.54,14.55-.13,4.44.36,4.44,2.91,8.12,4.17a14.62,14.62,0,0,0,5.39.66c.48,0,1.32-.05,2.22-.12,1.12,1.51,3.2,2.76,6.8,3.59,4.16,1,8.93.4,13.1-.23,3.73-.57,7.84-2.34,11.62-2.86a4.48,4.48,0,0,0,1,1.67,10.39,10.39,0,0,0,3.36,2.24c3.55,1.54,7.65,1.22,11.66.57a46.65,46.65,0,0,0,10-2.58c7.64,1.45,17.27.37,22.22-2.78,6.5.39,13.6-.39,18.09-3a11.07,11.07,0,0,0,2.39-1.82,32.67,32.67,0,0,0,5.85-1.24c5.43-1.68,5.48-7.3,0-9a30.53,30.53,0,0,0-3.18-.77,3.65,3.65,0,0,0-.25-.67c1.2-1.22,4.43-3.51,4.85-4.27a5,5,0,0,0-.37-5.76,19.49,19.49,0,0,0-6.8-5.28c2.88-3.67-.74-7.49-7.24-7.79-2.91-.14-5.74-.14-8.57-.06-2.08-2.93-6.47-4.88-12.89-3.63a22.22,22.22,0,0,0-10,4.72,16.14,16.14,0,0,0-1.8,2.08c-1.32.21-3.2.65-3.67.77a8.28,8.28,0,0,0-5.42,3.81c-.28.1-.55.2-.84.28q-.86.09-1.47.21c-.64-.5-1.22-.91-1.48-1.08-3.74-2.53-8.84-3.62-14.27-3.59-4.41,0-8.5,2.37-8.36,5.2,0,.61-2.82,4.09-3.69,4.6-1.41.84-4.53.87-5.87,1.72l-1.52.33a10.36,10.36,0,0,0-2.67-2.7c-5.8-4.09-15.8-3.4-20.73.61-3.76,1-7.26,2.44-9.71,4.53a17,17,0,0,0-9.35-.5,12.87,12.87,0,0,0-6.76,3.45,6.28,6.28,0,0,0-1.06,3.42C406.78,362.6,405.22,364.56,406.49,366.53Zm42.15-4.92a52.09,52.09,0,0,1-8.41.34,4.17,4.17,0,0,0,.47-1.65c.82-.5,3.05-.75,4.9-1.17.32.35.66.67.86.86A10.73,10.73,0,0,0,448.64,361.61Zm55.54-7.42a7.14,7.14,0,0,0,.52.89c-.35-.06-.7-.13-1-.22l-.41-.39.1,0Zm13.73,11.43a10.76,10.76,0,0,0-1.18.34c-.33-.18-.69-.36-1.09-.53-3.12-1.29-3.29-3-2.84-5.08a2,2,0,0,0-.09-1l.27.06c.23,2.11,1.5,4.14,4.26,5.87C517.46,365.38,517.69,365.49,517.91,365.62Z" transform="translate(-260.1 -173.6)" />
        </g>
    </g>
</svg>
